<?xml version="1.0" encoding="UTF-8" standalone="no"?>
<!DOCTYPE svg PUBLIC "-//W3C//DTD SVG 1.1//EN" "http://www.w3.org/Graphics/SVG/1.1/DTD/svg11.dtd">
<svg version="1.1" xmlns="http://www.w3.org/2000/svg" xmlns:xlink="http://www.w3.org/1999/xlink" preserveAspectRatio="xMidYMid meet" viewBox="0 0 214 214" width="214" height="214"><defs><path d="M196.05 5C203.7 5 209.9 11.2 209.9 18.85C209.9 57.06 209.9 156.8 209.9 194.75C209.9 203.11 203.11 209.9 194.75 209.9C156.8 209.9 57.06 209.9 18.85 209.9C11.2 209.9 5 203.7 5 196.05C5 157.84 5 58.1 5 20.15C5 11.79 11.79 5 20.15 5C58.1 5 157.84 5 196.05 5Z" id="j44tDoLyv"></path><path d="M182.33 26.18C185.86 26.18 188.72 29.04 188.72 32.57C188.72 63.8 188.72 150.77 188.72 181.92C188.72 185.67 185.67 188.72 181.92 188.72C150.77 188.72 63.8 188.72 32.57 188.72C29.04 188.72 26.18 185.86 26.18 182.33C26.18 151.1 26.18 63.4 26.18 32.07C26.18 28.82 28.82 26.18 32.07 26.18C63.4 26.18 151.1 26.18 182.33 26.18Z" id="hCuSCvH8S"></path><path d="M172.56 38.09C175.62 38.09 178.11 40.58 178.11 43.64C178.11 70.8 178.11 146.41 178.11 173.5C178.11 176.76 175.46 179.41 172.19 179.41C145.11 179.41 69.5 179.41 42.34 179.41C39.28 179.41 36.79 176.92 36.79 173.86C36.79 146.71 36.79 70.45 36.79 43.21C36.79 40.39 39.08 38.09 41.91 38.09C69.15 38.09 145.4 38.09 172.56 38.09Z" id="b4NIFSt4Ff"></path><clipPath id="clipa6tXj76HnL"><use xlink:href="#b4NIFSt4Ff" opacity="1"></use></clipPath><path d="M92.61 40.76C92.61 40.76 111.73 40.76 111.73 40.76C124.4 40.76 158.56 40.76 172.65 40.76C174.01 40.76 175.11 41.86 175.11 43.21C175.11 69.78 175.11 146.67 175.11 173.14C175.11 174.76 173.8 176.07 172.18 176.07C159.23 176.07 141.28 176.07 107.45 176.07C73.62 176.07 55.67 176.07 42.72 176.07C41.1 176.07 39.79 174.76 39.79 173.14C39.79 146.67 39.79 69.41 39.79 42.74C39.79 41.64 40.68 40.76 41.78 40.76C53.86 40.76 82.05 40.76 92.61 40.76Z" id="d4vXm9Yz0f"></path><linearGradient id="gradienta8DN6V9zpV" gradientUnits="userSpaceOnUse" x1="107.45" y1="40.76" x2="107.45" y2="176.07"><stop style="stop-color: #ffffff;stop-opacity: 0.57" offset="0%"></stop><stop style="stop-color: #065e57;stop-opacity: 0" offset="100%"></stop></linearGradient><path d="M172.94 38.93C174.89 38.93 176.48 40.52 176.48 42.48C176.48 69.56 176.48 146.44 176.48 173.32C176.48 175.85 174.43 177.89 171.91 177.89C145.03 177.89 68.81 177.89 41.89 177.89C39.48 177.89 37.52 175.94 37.52 173.52C37.52 146.61 37.52 69.39 37.52 42.26C37.52 40.42 39.01 38.93 40.84 38.93C67.97 38.93 145.85 38.93 172.94 38.93Z" id="cxnKYkUOX"></path><radialGradient id="gradientb1wQ5YzJWi" gradientUnits="userSpaceOnUse" cx="107" cy="79.12" dx="107" dy="218.08" r="138.96"><stop style="stop-color: #f29972;stop-opacity: 0.8" offset="0%"></stop><stop style="stop-color: #f03900;stop-opacity: 0.87" offset="100%"></stop></radialGradient></defs><g><g><g><g><filter id="shadow15149867" x="-19" y="-19" width="254.89" height="254.89" filterUnits="userSpaceOnUse" primitiveUnits="userSpaceOnUse"><feFlood></feFlood><feComposite in2="SourceAlpha" operator="in"></feComposite><feGaussianBlur stdDeviation="2.83"></feGaussianBlur><feOffset dx="2" dy="2" result="afterOffset"></feOffset><feFlood flood-color="#000000" flood-opacity="0.5"></feFlood><feComposite in2="afterOffset" operator="in"></feComposite><feMorphology operator="dilate" radius="1"></feMorphology><feComposite in2="SourceAlpha" operator="out"></feComposite></filter><path d="M196.05 5C203.7 5 209.9 11.2 209.9 18.85C209.9 57.06 209.9 156.8 209.9 194.75C209.9 203.11 203.11 209.9 194.75 209.9C156.8 209.9 57.06 209.9 18.85 209.9C11.2 209.9 5 203.7 5 196.05C5 157.84 5 58.1 5 20.15C5 11.79 11.79 5 20.15 5C58.1 5 157.84 5 196.05 5Z" id="c2lBzzYuZ0" fill="white" fill-opacity="1" filter="url(#shadow15149867)"></path></g><use xlink:href="#j44tDoLyv" opacity="1" fill="#66b0a1" fill-opacity="1"></use><g><use xlink:href="#j44tDoLyv" opacity="1" fill-opacity="0" stroke="#000000" stroke-width="9" stroke-opacity="1"></use></g><g><filter id="shadow7987506" x="-60" y="-60" width="340.89" height="335.89" filterUnits="userSpaceOnUse" primitiveUnits="userSpaceOnUse"><feFlood></feFlood><feComposite in2="SourceAlpha" operator="out"></feComposite><feGaussianBlur stdDeviation="4.9"></feGaussianBlur><feOffset dx="6" dy="1" result="afterOffset"></feOffset><feFlood flood-color="#66af97" flood-opacity="0.8"></feFlood><feComposite in2="afterOffset" operator="in"></feComposite><feMorphology operator="dilate" radius="6"></feMorphology><feComposite in2="SourceAlpha" operator="in"></feComposite></filter><path d="M196.05 5C203.7 5 209.9 11.2 209.9 18.85C209.9 57.06 209.9 156.8 209.9 194.75C209.9 203.11 203.11 209.9 194.75 209.9C156.8 209.9 57.06 209.9 18.85 209.9C11.2 209.9 5 203.7 5 196.05C5 157.84 5 58.1 5 20.15C5 11.79 11.79 5 20.15 5C58.1 5 157.84 5 196.05 5Z" id="a3F0oZi08y" fill="white" fill-opacity="1" filter="url(#shadow7987506)"></path></g></g><g><g><filter id="shadow1384196" x="-14.82" y="-14.82" width="244.54" height="244.54" filterUnits="userSpaceOnUse" primitiveUnits="userSpaceOnUse"><feFlood></feFlood><feComposite in2="SourceAlpha" operator="in"></feComposite><feGaussianBlur stdDeviation="4.12"></feGaussianBlur><feOffset dx="0" dy="0" result="afterOffset"></feOffset><feFlood flood-color="#000000" flood-opacity="1"></feFlood><feComposite in2="afterOffset" operator="in"></feComposite><feMorphology operator="dilate" radius="2"></feMorphology><feComposite in2="SourceAlpha" operator="out"></feComposite></filter><path d="M182.33 26.18C185.86 26.18 188.72 29.04 188.72 32.57C188.72 63.8 188.72 150.77 188.72 181.92C188.72 185.67 185.67 188.72 181.92 188.72C150.77 188.72 63.8 188.72 32.57 188.72C29.04 188.72 26.18 185.86 26.18 182.33C26.18 151.1 26.18 63.4 26.18 32.07C26.18 28.82 28.82 26.18 32.07 26.18C63.4 26.18 151.1 26.18 182.33 26.18Z" id="af5szjhOm" fill="white" fill-opacity="1" filter="url(#shadow1384196)"></path></g><use xlink:href="#hCuSCvH8S" opacity="1" fill="#9fcec6" fill-opacity="1"></use><g><use xlink:href="#hCuSCvH8S" opacity="1" fill-opacity="0" stroke="#0b0d0d" stroke-width="6" stroke-opacity="0.87"></use></g><g><filter id="shadow7289772" x="-18.82" y="-18.82" width="252.54" height="254.54" filterUnits="userSpaceOnUse" primitiveUnits="userSpaceOnUse"><feFlood></feFlood><feComposite in2="SourceAlpha" operator="out"></feComposite><feGaussianBlur stdDeviation="4.24"></feGaussianBlur><feOffset dx="0" dy="2" result="afterOffset"></feOffset><feFlood flood-color="#2b2727" flood-opacity="0.36"></feFlood><feComposite in2="afterOffset" operator="in"></feComposite><feMorphology operator="dilate" radius="2"></feMorphology><feComposite in2="SourceAlpha" operator="in"></feComposite></filter><path d="M182.33 26.18C185.86 26.18 188.72 29.04 188.72 32.57C188.72 63.8 188.72 150.77 188.72 181.92C188.72 185.67 185.67 188.72 181.92 188.72C150.77 188.72 63.8 188.72 32.57 188.72C29.04 188.72 26.18 185.86 26.18 182.33C26.18 151.1 26.18 63.4 26.18 32.07C26.18 28.82 28.82 26.18 32.07 26.18C63.4 26.18 151.1 26.18 182.33 26.18Z" id="f1LKtRjJlr" fill="white" fill-opacity="1" filter="url(#shadow7289772)"></path></g></g><g><g><filter id="shadow11071054" x="-60.21" y="-58.91" width="335.32" height="335.32" filterUnits="userSpaceOnUse" primitiveUnits="userSpaceOnUse"><feFlood></feFlood><feComposite in2="SourceAlpha" operator="in"></feComposite><feGaussianBlur stdDeviation="6.71"></feGaussianBlur><feOffset dx="0" dy="0" result="afterOffset"></feOffset><feFlood flood-color="#1e4642" flood-opacity="0.58"></feFlood><feComposite in2="afterOffset" operator="in"></feComposite><feMorphology operator="dilate" radius="2"></feMorphology><feComposite in2="SourceAlpha" operator="out"></feComposite></filter><path d="M172.56 38.09C175.62 38.09 178.11 40.58 178.11 43.64C178.11 70.8 178.11 146.41 178.11 173.5C178.11 176.76 175.46 179.41 172.19 179.41C145.11 179.41 69.5 179.41 42.34 179.41C39.28 179.41 36.79 176.92 36.79 173.86C36.79 146.71 36.79 70.45 36.79 43.21C36.79 40.39 39.08 38.09 41.91 38.09C69.15 38.09 145.4 38.09 172.56 38.09Z" id="a3ciRyKUjQ" fill="white" fill-opacity="1" filter="url(#shadow11071054)"></path></g><use xlink:href="#b4NIFSt4Ff" opacity="1" fill="#d6eae7" fill-opacity="0.93"></use><g clip-path="url(#clipa6tXj76HnL)"><use xlink:href="#b4NIFSt4Ff" opacity="1" fill-opacity="0" stroke="#ffffff" stroke-width="2" stroke-opacity="1"></use></g><g><filter id="shadow9850481" x="-84.21" y="-82.91" width="383.32" height="383.32" filterUnits="userSpaceOnUse" primitiveUnits="userSpaceOnUse"><feFlood></feFlood><feComposite in2="SourceAlpha" operator="out"></feComposite><feGaussianBlur stdDeviation="7.07"></feGaussianBlur><feOffset dx="0" dy="0" result="afterOffset"></feOffset><feFlood flood-color="#000000" flood-opacity="0.14"></feFlood><feComposite in2="afterOffset" operator="in"></feComposite><feMorphology operator="dilate" radius="16"></feMorphology><feComposite in2="SourceAlpha" operator="in"></feComposite></filter><path d="M172.56 38.09C175.62 38.09 178.11 40.58 178.11 43.64C178.11 70.8 178.11 146.41 178.11 173.5C178.11 176.76 175.46 179.41 172.19 179.41C145.11 179.41 69.5 179.41 42.34 179.41C39.28 179.41 36.79 176.92 36.79 173.86C36.79 146.71 36.79 70.45 36.79 43.21C36.79 40.39 39.08 38.09 41.91 38.09C69.15 38.09 145.4 38.09 172.56 38.09Z" id="akI3laype" fill="white" fill-opacity="1" filter="url(#shadow9850481)"></path></g></g><g><g><filter id="shadow3824799" x="-54.21" y="-53.24" width="332.32" height="331.32" filterUnits="userSpaceOnUse" primitiveUnits="userSpaceOnUse"><feFlood></feFlood><feComposite in2="SourceAlpha" operator="in"></feComposite><feGaussianBlur stdDeviation="6.16"></feGaussianBlur><feOffset dx="9" dy="8" result="afterOffset"></feOffset><feFlood flood-color="#000000" flood-opacity="0.66"></feFlood><feComposite in2="afterOffset" operator="in"></feComposite><feMorphology operator="dilate" radius="4"></feMorphology><feComposite in2="SourceAlpha" operator="out"></feComposite></filter><path d="M92.61 40.76C92.61 40.76 111.73 40.76 111.73 40.76C124.4 40.76 158.56 40.76 172.65 40.76C174.01 40.76 175.11 41.86 175.11 43.21C175.11 69.78 175.11 146.67 175.11 173.14C175.11 174.76 173.8 176.07 172.18 176.07C159.23 176.07 141.28 176.07 107.45 176.07C73.62 176.07 55.67 176.07 42.72 176.07C41.1 176.07 39.79 174.76 39.79 173.14C39.79 146.67 39.79 69.41 39.79 42.74C39.79 41.64 40.68 40.76 41.78 40.76C53.86 40.76 82.05 40.76 92.61 40.76Z" id="bnQePCU39" fill="white" fill-opacity="1" filter="url(#shadow3824799)"></path></g><use xlink:href="#d4vXm9Yz0f" opacity="1" fill="url(#gradienta8DN6V9zpV)"></use><g><use xlink:href="#d4vXm9Yz0f" opacity="1" fill-opacity="0" stroke="#000000" stroke-width="9" stroke-opacity="0.03"></use></g><g><filter id="shadow5850999" x="-86.21" y="-85.24" width="399.32" height="408.32" filterUnits="userSpaceOnUse" primitiveUnits="userSpaceOnUse"><feFlood></feFlood><feComposite in2="SourceAlpha" operator="out"></feComposite><feGaussianBlur stdDeviation="6.56"></feGaussianBlur><feOffset dx="12" dy="21" result="afterOffset"></feOffset><feFlood flood-color="#c0ebeb" flood-opacity="0.8"></feFlood><feComposite in2="afterOffset" operator="in"></feComposite><feMorphology operator="dilate" radius="14"></feMorphology><feComposite in2="SourceAlpha" operator="in"></feComposite></filter><path d="M92.61 40.76C92.61 40.76 111.73 40.76 111.73 40.76C124.4 40.76 158.56 40.76 172.65 40.76C174.01 40.76 175.11 41.86 175.11 43.21C175.11 69.78 175.11 146.67 175.11 173.14C175.11 174.76 173.8 176.07 172.18 176.07C159.23 176.07 141.28 176.07 107.45 176.07C73.62 176.07 55.67 176.07 42.72 176.07C41.1 176.07 39.79 174.76 39.79 173.14C39.79 146.67 39.79 69.41 39.79 42.74C39.79 41.64 40.68 40.76 41.78 40.76C53.86 40.76 82.05 40.76 92.61 40.76Z" id="dJZMM1eMB" fill="white" fill-opacity="1" filter="url(#shadow5850999)"></path></g></g><g><g><filter id="shadow5406519" x="-43.48" y="-42.07" width="301.96" height="301.96" filterUnits="userSpaceOnUse" primitiveUnits="userSpaceOnUse"><feFlood></feFlood><feComposite in2="SourceAlpha" operator="in"></feComposite><feGaussianBlur stdDeviation="5.83"></feGaussianBlur><feOffset dx="1" dy="1" result="afterOffset"></feOffset><feFlood flood-color="#d75118" flood-opacity="0.85"></feFlood><feComposite in2="afterOffset" operator="in"></feComposite><feMorphology operator="dilate" radius="7"></feMorphology><feComposite in2="SourceAlpha" operator="out"></feComposite></filter><path d="M172.94 38.93C174.89 38.93 176.48 40.52 176.48 42.48C176.48 69.56 176.48 146.44 176.48 173.32C176.48 175.85 174.43 177.89 171.91 177.89C145.03 177.89 68.81 177.89 41.89 177.89C39.48 177.89 37.52 175.94 37.52 173.52C37.52 146.61 37.52 69.39 37.52 42.26C37.52 40.42 39.01 38.93 40.84 38.93C67.97 38.93 145.85 38.93 172.94 38.93Z" id="c5vJL8MwI" fill="white" fill-opacity="1" filter="url(#shadow5406519)"></path></g><use xlink:href="#cxnKYkUOX" opacity="1" fill="url(#gradientb1wQ5YzJWi)"></use><g><use xlink:href="#cxnKYkUOX" opacity="1" fill-opacity="0" stroke="#282516" stroke-width="1" stroke-opacity="0.24"></use></g></g></g></g></svg>