<?xml version="1.0" encoding="UTF-8" standalone="no"?>
<!DOCTYPE svg PUBLIC "-//W3C//DTD SVG 1.1//EN" "http://www.w3.org/Graphics/SVG/1.1/DTD/svg11.dtd">
<svg version="1.1" xmlns="http://www.w3.org/2000/svg" xmlns:xlink="http://www.w3.org/1999/xlink" preserveAspectRatio="xMidYMid meet" viewBox="0 0 214 214" width="214" height="214"><defs><path d="M194.68 5.62C202.24 5.62 208.38 11.76 208.38 19.32C208.38 57.13 208.38 155.84 208.38 193.39C208.38 201.67 201.67 208.38 193.39 208.38C155.84 208.38 57.13 208.38 19.32 208.38C11.76 208.38 5.62 202.24 5.62 194.68C5.62 156.87 5.62 58.16 5.62 20.61C5.62 12.33 12.33 5.62 20.61 5.62C58.16 5.62 156.87 5.62 194.68 5.62Z" id="i19AtuN7hb"></path><path d="M187.56 20.58C191.32 20.58 194.38 23.64 194.38 27.41C194.38 60.8 194.38 153.8 194.38 187.11C194.38 191.12 191.12 194.38 187.11 194.38C153.8 194.38 60.8 194.38 27.41 194.38C23.64 194.38 20.58 191.32 20.58 187.56C20.58 154.16 20.58 60.38 20.58 26.88C20.58 23.4 23.4 20.58 26.88 20.58C60.38 20.58 154.16 20.58 187.56 20.58Z" id="bXZfv0qp4"></path><path d="M177.1 33.32C180.38 33.32 183.04 35.98 183.04 39.25C183.04 68.29 183.04 149.15 183.04 178.1C183.04 181.6 180.2 184.43 176.71 184.43C147.75 184.43 66.9 184.43 37.86 184.43C34.58 184.43 31.93 181.77 31.93 178.49C31.93 149.46 31.93 67.92 31.93 38.79C31.93 35.77 34.38 33.32 37.4 33.32C66.53 33.32 148.07 33.32 177.1 33.32Z" id="a4N1qxlZqs"></path><clipPath id="clipbezG7vSrz"><use xlink:href="#a4N1qxlZqs" opacity="1"></use></clipPath><path d="M91.62 36.17C91.62 36.17 112.06 36.17 112.06 36.17C125.61 36.17 162.13 36.17 177.2 36.17C178.65 36.17 179.83 37.34 179.83 38.79C179.83 67.21 179.83 149.42 179.83 177.73C179.83 179.46 178.43 180.86 176.7 180.86C178.78 180.86 155.71 180.86 107.48 180.86C59.25 180.86 36.18 180.86 38.27 180.86C36.54 180.86 35.14 179.46 35.14 177.73C35.14 149.42 35.14 66.8 35.14 38.29C35.14 37.12 36.09 36.17 37.26 36.17C50.17 36.17 80.32 36.17 91.62 36.17Z" id="a4PxkzzChQ"></path><linearGradient id="gradienta3veD5jDBV" gradientUnits="userSpaceOnUse" x1="107.48" y1="36.17" x2="107.48" y2="180.86"><stop style="stop-color: #ffffff;stop-opacity: 0.57" offset="0%"></stop><stop style="stop-color: #a1a6a6;stop-opacity: 0" offset="100%"></stop></linearGradient><path d="M183.16 26.75C185.42 26.75 187.25 28.58 187.25 30.84C187.25 62.12 187.25 150.93 187.25 181.97C187.25 184.89 184.89 187.25 181.97 187.25C150.64 187.25 61.76 187.25 30.38 187.25C27.6 187.25 25.34 184.99 25.34 182.2C25.34 151.11 25.34 61.92 25.34 30.59C25.34 28.47 27.06 26.75 29.18 26.75C60.79 26.75 151.59 26.75 183.16 26.75Z" id="c3n9KoAhoK"></path><radialGradient id="gradientdKzurKK32" gradientUnits="userSpaceOnUse" cx="106.29" cy="73.17" dx="106.29" dy="233.67" r="160.5"><stop style="stop-color: #f19871;stop-opacity: 0.8" offset="0%"></stop><stop style="stop-color: #f03800;stop-opacity: 0.87" offset="100%"></stop></radialGradient></defs><g><g><g><g><filter id="shadow3136702" x="-24.38" y="-24.38" width="264.75" height="264.75" filterUnits="userSpaceOnUse" primitiveUnits="userSpaceOnUse"><feFlood></feFlood><feComposite in2="SourceAlpha" operator="in"></feComposite><feGaussianBlur stdDeviation="2.83"></feGaussianBlur><feOffset dx="2" dy="2" result="afterOffset"></feOffset><feFlood flood-color="#000000" flood-opacity="0.14"></feFlood><feComposite in2="afterOffset" operator="in"></feComposite><feMorphology operator="dilate" radius="7"></feMorphology><feComposite in2="SourceAlpha" operator="out"></feComposite></filter><path d="M194.68 5.62C202.24 5.62 208.38 11.76 208.38 19.32C208.38 57.13 208.38 155.84 208.38 193.39C208.38 201.67 201.67 208.38 193.39 208.38C155.84 208.38 57.13 208.38 19.32 208.38C11.76 208.38 5.62 202.24 5.62 194.68C5.62 156.87 5.62 58.16 5.62 20.61C5.62 12.33 12.33 5.62 20.61 5.62C58.16 5.62 156.87 5.62 194.68 5.62Z" id="gf3VL8hdI" fill="white" fill-opacity="1" filter="url(#shadow3136702)"></path></g><use xlink:href="#i19AtuN7hb" opacity="1" fill="#8f9292" fill-opacity="1"></use><g><use xlink:href="#i19AtuN7hb" opacity="1" fill-opacity="0" stroke="#000000" stroke-width="9" stroke-opacity="1"></use></g><g><filter id="shadow10622294" x="-59.38" y="-59.38" width="338.75" height="333.75" filterUnits="userSpaceOnUse" primitiveUnits="userSpaceOnUse"><feFlood></feFlood><feComposite in2="SourceAlpha" operator="out"></feComposite><feGaussianBlur stdDeviation="4.9"></feGaussianBlur><feOffset dx="6" dy="1" result="afterOffset"></feOffset><feFlood flood-color="#babdbc" flood-opacity="0.8"></feFlood><feComposite in2="afterOffset" operator="in"></feComposite><feMorphology operator="dilate" radius="6"></feMorphology><feComposite in2="SourceAlpha" operator="in"></feComposite></filter><path d="M194.68 5.62C202.24 5.62 208.38 11.76 208.38 19.32C208.38 57.13 208.38 155.84 208.38 193.39C208.38 201.67 201.67 208.38 193.39 208.38C155.84 208.38 57.13 208.38 19.32 208.38C11.76 208.38 5.62 202.24 5.62 194.68C5.62 156.87 5.62 58.16 5.62 20.61C5.62 12.33 12.33 5.62 20.61 5.62C58.16 5.62 156.87 5.62 194.68 5.62Z" id="h1kfh210ZB" fill="white" fill-opacity="1" filter="url(#shadow10622294)"></path></g></g><g><g><filter id="shadow13610490" x="-20.42" y="-20.42" width="255.8" height="255.8" filterUnits="userSpaceOnUse" primitiveUnits="userSpaceOnUse"><feFlood></feFlood><feComposite in2="SourceAlpha" operator="in"></feComposite><feGaussianBlur stdDeviation="4.12"></feGaussianBlur><feOffset dx="0" dy="0" result="afterOffset"></feOffset><feFlood flood-color="#000000" flood-opacity="1"></feFlood><feComposite in2="afterOffset" operator="in"></feComposite><feMorphology operator="dilate" radius="2"></feMorphology><feComposite in2="SourceAlpha" operator="out"></feComposite></filter><path d="M187.56 20.58C191.32 20.58 194.38 23.64 194.38 27.41C194.38 60.8 194.38 153.8 194.38 187.11C194.38 191.12 191.12 194.38 187.11 194.38C153.8 194.38 60.8 194.38 27.41 194.38C23.64 194.38 20.58 191.32 20.58 187.56C20.58 154.16 20.58 60.38 20.58 26.88C20.58 23.4 23.4 20.58 26.88 20.58C60.38 20.58 154.16 20.58 187.56 20.58Z" id="d4e8hQi9m5" fill="white" fill-opacity="1" filter="url(#shadow13610490)"></path></g><use xlink:href="#bXZfv0qp4" opacity="1" fill="#f6f6f6" fill-opacity="1"></use><g><use xlink:href="#bXZfv0qp4" opacity="1" fill-opacity="0" stroke="#0b0d0d" stroke-width="6" stroke-opacity="0.87"></use></g><g><filter id="shadow14815528" x="-24.42" y="-24.42" width="263.8" height="265.8" filterUnits="userSpaceOnUse" primitiveUnits="userSpaceOnUse"><feFlood></feFlood><feComposite in2="SourceAlpha" operator="out"></feComposite><feGaussianBlur stdDeviation="4.24"></feGaussianBlur><feOffset dx="0" dy="2" result="afterOffset"></feOffset><feFlood flood-color="#2b2727" flood-opacity="0.36"></feFlood><feComposite in2="afterOffset" operator="in"></feComposite><feMorphology operator="dilate" radius="2"></feMorphology><feComposite in2="SourceAlpha" operator="in"></feComposite></filter><path d="M187.56 20.58C191.32 20.58 194.38 23.64 194.38 27.41C194.38 60.8 194.38 153.8 194.38 187.11C194.38 191.12 191.12 194.38 187.11 194.38C153.8 194.38 60.8 194.38 27.41 194.38C23.64 194.38 20.58 191.32 20.58 187.56C20.58 154.16 20.58 60.38 20.58 26.88C20.58 23.4 23.4 20.58 26.88 20.58C60.38 20.58 154.16 20.58 187.56 20.58Z" id="a3MAgMDKSB" fill="white" fill-opacity="1" filter="url(#shadow14815528)"></path></g></g><g><g><filter id="shadow5349660" x="-65.07" y="-63.68" width="345.11" height="345.11" filterUnits="userSpaceOnUse" primitiveUnits="userSpaceOnUse"><feFlood></feFlood><feComposite in2="SourceAlpha" operator="in"></feComposite><feGaussianBlur stdDeviation="6.71"></feGaussianBlur><feOffset dx="0" dy="0" result="afterOffset"></feOffset><feFlood flood-color="#1e302e" flood-opacity="0.58"></feFlood><feComposite in2="afterOffset" operator="in"></feComposite><feMorphology operator="dilate" radius="2"></feMorphology><feComposite in2="SourceAlpha" operator="out"></feComposite></filter><path d="M177.1 33.32C180.38 33.32 183.04 35.98 183.04 39.25C183.04 68.29 183.04 149.15 183.04 178.1C183.04 181.6 180.2 184.43 176.71 184.43C147.75 184.43 66.9 184.43 37.86 184.43C34.58 184.43 31.93 181.77 31.93 178.49C31.93 149.46 31.93 67.92 31.93 38.79C31.93 35.77 34.38 33.32 37.4 33.32C66.53 33.32 148.07 33.32 177.1 33.32Z" id="bWXJ2TYB3" fill="white" fill-opacity="1" filter="url(#shadow5349660)"></path></g><use xlink:href="#a4N1qxlZqs" opacity="1" fill="#eaeeee" fill-opacity="0.93"></use><g clip-path="url(#clipbezG7vSrz)"><use xlink:href="#a4N1qxlZqs" opacity="1" fill-opacity="0" stroke="#ffffff" stroke-width="2" stroke-opacity="1"></use></g><g><filter id="shadow3495113" x="-89.07" y="-87.68" width="393.11" height="393.11" filterUnits="userSpaceOnUse" primitiveUnits="userSpaceOnUse"><feFlood></feFlood><feComposite in2="SourceAlpha" operator="out"></feComposite><feGaussianBlur stdDeviation="7.07"></feGaussianBlur><feOffset dx="0" dy="0" result="afterOffset"></feOffset><feFlood flood-color="#000000" flood-opacity="0.14"></feFlood><feComposite in2="afterOffset" operator="in"></feComposite><feMorphology operator="dilate" radius="16"></feMorphology><feComposite in2="SourceAlpha" operator="in"></feComposite></filter><path d="M177.1 33.32C180.38 33.32 183.04 35.98 183.04 39.25C183.04 68.29 183.04 149.15 183.04 178.1C183.04 181.6 180.2 184.43 176.71 184.43C147.75 184.43 66.9 184.43 37.86 184.43C34.58 184.43 31.93 181.77 31.93 178.49C31.93 149.46 31.93 67.92 31.93 38.79C31.93 35.77 34.38 33.32 37.4 33.32C66.53 33.32 148.07 33.32 177.1 33.32Z" id="a1cN2kgzza" fill="white" fill-opacity="1" filter="url(#shadow3495113)"></path></g></g><g><g><filter id="shadow6474835" x="-58.86" y="-57.83" width="341.69" height="340.69" filterUnits="userSpaceOnUse" primitiveUnits="userSpaceOnUse"><feFlood></feFlood><feComposite in2="SourceAlpha" operator="in"></feComposite><feGaussianBlur stdDeviation="6.16"></feGaussianBlur><feOffset dx="9" dy="8" result="afterOffset"></feOffset><feFlood flood-color="#000000" flood-opacity="0.66"></feFlood><feComposite in2="afterOffset" operator="in"></feComposite><feMorphology operator="dilate" radius="4"></feMorphology><feComposite in2="SourceAlpha" operator="out"></feComposite></filter><path d="M91.62 36.17C91.62 36.17 112.06 36.17 112.06 36.17C125.61 36.17 162.13 36.17 177.2 36.17C178.65 36.17 179.83 37.34 179.83 38.79C179.83 67.21 179.83 149.42 179.83 177.73C179.83 179.46 178.43 180.86 176.7 180.86C178.78 180.86 155.71 180.86 107.48 180.86C59.25 180.86 36.18 180.86 38.27 180.86C36.54 180.86 35.14 179.46 35.14 177.73C35.14 149.42 35.14 66.8 35.14 38.29C35.14 37.12 36.09 36.17 37.26 36.17C50.17 36.17 80.32 36.17 91.62 36.17Z" id="bwUlAjYIV" fill="white" fill-opacity="1" filter="url(#shadow6474835)"></path></g><use xlink:href="#a4PxkzzChQ" opacity="1" fill="url(#gradienta3veD5jDBV)"></use><g><use xlink:href="#a4PxkzzChQ" opacity="1" fill-opacity="0" stroke="#000000" stroke-width="9" stroke-opacity="0.03"></use></g><g><filter id="shadow12261078" x="-90.86" y="-89.83" width="408.69" height="417.69" filterUnits="userSpaceOnUse" primitiveUnits="userSpaceOnUse"><feFlood></feFlood><feComposite in2="SourceAlpha" operator="out"></feComposite><feGaussianBlur stdDeviation="6.56"></feGaussianBlur><feOffset dx="12" dy="21" result="afterOffset"></feOffset><feFlood flood-color="#e0ebeb" flood-opacity="0.8"></feFlood><feComposite in2="afterOffset" operator="in"></feComposite><feMorphology operator="dilate" radius="14"></feMorphology><feComposite in2="SourceAlpha" operator="in"></feComposite></filter><path d="M91.62 36.17C91.62 36.17 112.06 36.17 112.06 36.17C125.61 36.17 162.13 36.17 177.2 36.17C178.65 36.17 179.83 37.34 179.83 38.79C179.83 67.21 179.83 149.42 179.83 177.73C179.83 179.46 178.43 180.86 176.7 180.86C178.78 180.86 155.71 180.86 107.48 180.86C59.25 180.86 36.18 180.86 38.27 180.86C36.54 180.86 35.14 179.46 35.14 177.73C35.14 149.42 35.14 66.8 35.14 38.29C35.14 37.12 36.09 36.17 37.26 36.17C50.17 36.17 80.32 36.17 91.62 36.17Z" id="cHTpc8rVw" fill="white" fill-opacity="1" filter="url(#shadow12261078)"></path></g></g><g><g><filter id="shadow14846397" x="-55.66" y="-54.25" width="324.91" height="323.5" filterUnits="userSpaceOnUse" primitiveUnits="userSpaceOnUse"><feFlood></feFlood><feComposite in2="SourceAlpha" operator="in"></feComposite><feGaussianBlur stdDeviation="5.83"></feGaussianBlur><feOffset dx="1" dy="1" result="afterOffset"></feOffset><feFlood flood-color="#d75118" flood-opacity="0.85"></feFlood><feComposite in2="afterOffset" operator="in"></feComposite><feMorphology operator="dilate" radius="7"></feMorphology><feComposite in2="SourceAlpha" operator="out"></feComposite></filter><path d="M183.16 26.75C185.42 26.75 187.25 28.58 187.25 30.84C187.25 62.12 187.25 150.93 187.25 181.97C187.25 184.89 184.89 187.25 181.97 187.25C150.64 187.25 61.76 187.25 30.38 187.25C27.6 187.25 25.34 184.99 25.34 182.2C25.34 151.11 25.34 61.92 25.34 30.59C25.34 28.47 27.06 26.75 29.18 26.75C60.79 26.75 151.59 26.75 183.16 26.75Z" id="c6s7ymwwf4" fill="white" fill-opacity="1" filter="url(#shadow14846397)"></path></g><use xlink:href="#c3n9KoAhoK" opacity="1" fill="url(#gradientdKzurKK32)"></use><g><use xlink:href="#c3n9KoAhoK" opacity="1" fill-opacity="0" stroke="#272516" stroke-width="1" stroke-opacity="0.24"></use></g></g></g></g></svg>