<?xml version="1.0" encoding="UTF-8" standalone="no"?>
<!DOCTYPE svg PUBLIC "-//W3C//DTD SVG 1.1//EN" "http://www.w3.org/Graphics/SVG/1.1/DTD/svg11.dtd">
<svg version="1.1" xmlns="http://www.w3.org/2000/svg" xmlns:xlink="http://www.w3.org/1999/xlink" preserveAspectRatio="xMidYMid meet" viewBox="0 0 214 214" width="214" height="214"><defs><path d="M194.68 5.62C202.24 5.62 208.38 11.76 208.38 19.32C208.38 57.13 208.38 155.84 208.38 193.39C208.38 201.67 201.67 208.38 193.39 208.38C155.84 208.38 57.13 208.38 19.32 208.38C11.76 208.38 5.62 202.24 5.62 194.68C5.62 156.87 5.62 58.16 5.62 20.61C5.62 12.33 12.33 5.62 20.61 5.62C58.16 5.62 156.87 5.62 194.68 5.62Z" id="bppO7aQt9"></path><path d="M187.56 20.58C191.32 20.58 194.38 23.64 194.38 27.41C194.38 60.8 194.38 153.8 194.38 187.11C194.38 191.12 191.12 194.38 187.11 194.38C153.8 194.38 60.8 194.38 27.41 194.38C23.64 194.38 20.58 191.32 20.58 187.56C20.58 154.16 20.58 60.38 20.58 26.88C20.58 23.4 23.4 20.58 26.88 20.58C60.38 20.58 154.16 20.58 187.56 20.58Z" id="c2yvdw6CYK"></path><path d="M177.1 33.32C180.38 33.32 183.04 35.98 183.04 39.25C183.04 68.29 183.04 149.15 183.04 178.1C183.04 181.6 180.2 184.43 176.71 184.43C147.75 184.43 66.9 184.43 37.86 184.43C34.58 184.43 31.93 181.77 31.93 178.49C31.93 149.46 31.93 67.92 31.93 38.79C31.93 35.77 34.38 33.32 37.4 33.32C66.53 33.32 148.07 33.32 177.1 33.32Z" id="bdYg3DSCh"></path><clipPath id="clipb6UzhtHzi"><use xlink:href="#bdYg3DSCh" opacity="1"></use></clipPath><path d="M91.62 36.17C91.62 36.17 112.06 36.17 112.06 36.17C125.61 36.17 162.13 36.17 177.2 36.17C178.65 36.17 179.83 37.34 179.83 38.79C179.83 67.21 179.83 149.42 179.83 177.73C179.83 179.46 178.43 180.86 176.7 180.86C178.78 180.86 155.71 180.86 107.48 180.86C59.25 180.86 36.18 180.86 38.27 180.86C36.54 180.86 35.14 179.46 35.14 177.73C35.14 149.42 35.14 66.8 35.14 38.29C35.14 37.12 36.09 36.17 37.26 36.17C50.17 36.17 80.32 36.17 91.62 36.17Z" id="b7za1qSt70"></path><linearGradient id="gradientd52TheyF" gradientUnits="userSpaceOnUse" x1="44.32" y1="49.82" x2="144.65" y2="143.61"><stop style="stop-color: #b5b3b3;stop-opacity: 0.59" offset="0%"></stop><stop style="stop-color: #f1f9fb;stop-opacity: 1" offset="100%"></stop></linearGradient></defs><g><g><g><g><filter id="shadow7980331" x="-24.38" y="-24.38" width="264.75" height="264.75" filterUnits="userSpaceOnUse" primitiveUnits="userSpaceOnUse"><feFlood></feFlood><feComposite in2="SourceAlpha" operator="in"></feComposite><feGaussianBlur stdDeviation="2.83"></feGaussianBlur><feOffset dx="2" dy="2" result="afterOffset"></feOffset><feFlood flood-color="#000000" flood-opacity="0.14"></feFlood><feComposite in2="afterOffset" operator="in"></feComposite><feMorphology operator="dilate" radius="7"></feMorphology><feComposite in2="SourceAlpha" operator="out"></feComposite></filter><path d="M194.68 5.62C202.24 5.62 208.38 11.76 208.38 19.32C208.38 57.13 208.38 155.84 208.38 193.39C208.38 201.67 201.67 208.38 193.39 208.38C155.84 208.38 57.13 208.38 19.32 208.38C11.76 208.38 5.62 202.24 5.62 194.68C5.62 156.87 5.62 58.16 5.62 20.61C5.62 12.33 12.33 5.62 20.61 5.62C58.16 5.62 156.87 5.62 194.68 5.62Z" id="f2sSkASCKT" fill="white" fill-opacity="1" filter="url(#shadow7980331)"></path></g><use xlink:href="#bppO7aQt9" opacity="1" fill="#8f9292" fill-opacity="1"></use><g><use xlink:href="#bppO7aQt9" opacity="1" fill-opacity="0" stroke="#000000" stroke-width="9" stroke-opacity="1"></use></g><g><filter id="shadow14964687" x="-59.38" y="-59.38" width="338.75" height="333.75" filterUnits="userSpaceOnUse" primitiveUnits="userSpaceOnUse"><feFlood></feFlood><feComposite in2="SourceAlpha" operator="out"></feComposite><feGaussianBlur stdDeviation="4.9"></feGaussianBlur><feOffset dx="6" dy="1" result="afterOffset"></feOffset><feFlood flood-color="#babdbc" flood-opacity="0.8"></feFlood><feComposite in2="afterOffset" operator="in"></feComposite><feMorphology operator="dilate" radius="6"></feMorphology><feComposite in2="SourceAlpha" operator="in"></feComposite></filter><path d="M194.68 5.62C202.24 5.62 208.38 11.76 208.38 19.32C208.38 57.13 208.38 155.84 208.38 193.39C208.38 201.67 201.67 208.38 193.39 208.38C155.84 208.38 57.13 208.38 19.32 208.38C11.76 208.38 5.62 202.24 5.62 194.68C5.62 156.87 5.62 58.16 5.62 20.61C5.62 12.33 12.33 5.62 20.61 5.62C58.16 5.62 156.87 5.62 194.68 5.62Z" id="f6OguuIBFL" fill="white" fill-opacity="1" filter="url(#shadow14964687)"></path></g></g><g><g><filter id="shadow11118164" x="-20.42" y="-20.42" width="255.8" height="255.8" filterUnits="userSpaceOnUse" primitiveUnits="userSpaceOnUse"><feFlood></feFlood><feComposite in2="SourceAlpha" operator="in"></feComposite><feGaussianBlur stdDeviation="4.12"></feGaussianBlur><feOffset dx="0" dy="0" result="afterOffset"></feOffset><feFlood flood-color="#000000" flood-opacity="1"></feFlood><feComposite in2="afterOffset" operator="in"></feComposite><feMorphology operator="dilate" radius="2"></feMorphology><feComposite in2="SourceAlpha" operator="out"></feComposite></filter><path d="M187.56 20.58C191.32 20.58 194.38 23.64 194.38 27.41C194.38 60.8 194.38 153.8 194.38 187.11C194.38 191.12 191.12 194.38 187.11 194.38C153.8 194.38 60.8 194.38 27.41 194.38C23.64 194.38 20.58 191.32 20.58 187.56C20.58 154.16 20.58 60.38 20.58 26.88C20.58 23.4 23.4 20.58 26.88 20.58C60.38 20.58 154.16 20.58 187.56 20.58Z" id="d76UkzziIS" fill="white" fill-opacity="1" filter="url(#shadow11118164)"></path></g><use xlink:href="#c2yvdw6CYK" opacity="1" fill="#d8d5d5" fill-opacity="0.78"></use><g><use xlink:href="#c2yvdw6CYK" opacity="1" fill-opacity="0" stroke="#0b0d0d" stroke-width="6" stroke-opacity="0.87"></use></g><g><filter id="shadow3850563" x="-24.42" y="-24.42" width="263.8" height="265.8" filterUnits="userSpaceOnUse" primitiveUnits="userSpaceOnUse"><feFlood></feFlood><feComposite in2="SourceAlpha" operator="out"></feComposite><feGaussianBlur stdDeviation="4.24"></feGaussianBlur><feOffset dx="0" dy="2" result="afterOffset"></feOffset><feFlood flood-color="#2b2727" flood-opacity="0.36"></feFlood><feComposite in2="afterOffset" operator="in"></feComposite><feMorphology operator="dilate" radius="2"></feMorphology><feComposite in2="SourceAlpha" operator="in"></feComposite></filter><path d="M187.56 20.58C191.32 20.58 194.38 23.64 194.38 27.41C194.38 60.8 194.38 153.8 194.38 187.11C194.38 191.12 191.12 194.38 187.11 194.38C153.8 194.38 60.8 194.38 27.41 194.38C23.64 194.38 20.58 191.32 20.58 187.56C20.58 154.16 20.58 60.38 20.58 26.88C20.58 23.4 23.4 20.58 26.88 20.58C60.38 20.58 154.16 20.58 187.56 20.58Z" id="e1BQRSIHh" fill="white" fill-opacity="1" filter="url(#shadow3850563)"></path></g></g><g><g><filter id="shadow7486216" x="-65.07" y="-63.68" width="345.11" height="345.11" filterUnits="userSpaceOnUse" primitiveUnits="userSpaceOnUse"><feFlood></feFlood><feComposite in2="SourceAlpha" operator="in"></feComposite><feGaussianBlur stdDeviation="6.71"></feGaussianBlur><feOffset dx="0" dy="0" result="afterOffset"></feOffset><feFlood flood-color="#1e302e" flood-opacity="0.58"></feFlood><feComposite in2="afterOffset" operator="in"></feComposite><feMorphology operator="dilate" radius="2"></feMorphology><feComposite in2="SourceAlpha" operator="out"></feComposite></filter><path d="M177.1 33.32C180.38 33.32 183.04 35.98 183.04 39.25C183.04 68.29 183.04 149.15 183.04 178.1C183.04 181.6 180.2 184.43 176.71 184.43C147.75 184.43 66.9 184.43 37.86 184.43C34.58 184.43 31.93 181.77 31.93 178.49C31.93 149.46 31.93 67.92 31.93 38.79C31.93 35.77 34.38 33.32 37.4 33.32C66.53 33.32 148.07 33.32 177.1 33.32Z" id="a5bCP3lo7U" fill="white" fill-opacity="1" filter="url(#shadow7486216)"></path></g><use xlink:href="#bdYg3DSCh" opacity="1" fill="#eaeeee" fill-opacity="0.93"></use><g clip-path="url(#clipb6UzhtHzi)"><use xlink:href="#bdYg3DSCh" opacity="1" fill-opacity="0" stroke="#ffffff" stroke-width="2" stroke-opacity="1"></use></g><g><filter id="shadow4548285" x="-89.07" y="-87.68" width="393.11" height="393.11" filterUnits="userSpaceOnUse" primitiveUnits="userSpaceOnUse"><feFlood></feFlood><feComposite in2="SourceAlpha" operator="out"></feComposite><feGaussianBlur stdDeviation="7.07"></feGaussianBlur><feOffset dx="0" dy="0" result="afterOffset"></feOffset><feFlood flood-color="#000000" flood-opacity="0.14"></feFlood><feComposite in2="afterOffset" operator="in"></feComposite><feMorphology operator="dilate" radius="16"></feMorphology><feComposite in2="SourceAlpha" operator="in"></feComposite></filter><path d="M177.1 33.32C180.38 33.32 183.04 35.98 183.04 39.25C183.04 68.29 183.04 149.15 183.04 178.1C183.04 181.6 180.2 184.43 176.71 184.43C147.75 184.43 66.9 184.43 37.86 184.43C34.58 184.43 31.93 181.77 31.93 178.49C31.93 149.46 31.93 67.92 31.93 38.79C31.93 35.77 34.38 33.32 37.4 33.32C66.53 33.32 148.07 33.32 177.1 33.32Z" id="dQtDCYFG6" fill="white" fill-opacity="1" filter="url(#shadow4548285)"></path></g></g><g><g><filter id="shadow10041725" x="-58.86" y="-57.83" width="341.69" height="340.69" filterUnits="userSpaceOnUse" primitiveUnits="userSpaceOnUse"><feFlood></feFlood><feComposite in2="SourceAlpha" operator="in"></feComposite><feGaussianBlur stdDeviation="6.16"></feGaussianBlur><feOffset dx="9" dy="8" result="afterOffset"></feOffset><feFlood flood-color="#000000" flood-opacity="0.66"></feFlood><feComposite in2="afterOffset" operator="in"></feComposite><feMorphology operator="dilate" radius="4"></feMorphology><feComposite in2="SourceAlpha" operator="out"></feComposite></filter><path d="M91.62 36.17C91.62 36.17 112.06 36.17 112.06 36.17C125.61 36.17 162.13 36.17 177.2 36.17C178.65 36.17 179.83 37.34 179.83 38.79C179.83 67.21 179.83 149.42 179.83 177.73C179.83 179.46 178.43 180.86 176.7 180.86C178.78 180.86 155.71 180.86 107.48 180.86C59.25 180.86 36.18 180.86 38.27 180.86C36.54 180.86 35.14 179.46 35.14 177.73C35.14 149.42 35.14 66.8 35.14 38.29C35.14 37.12 36.09 36.17 37.26 36.17C50.17 36.17 80.32 36.17 91.62 36.17Z" id="a1fu9zNLjE" fill="white" fill-opacity="1" filter="url(#shadow10041725)"></path></g><use xlink:href="#b7za1qSt70" opacity="1" fill="url(#gradientd52TheyF)"></use><g><use xlink:href="#b7za1qSt70" opacity="1" fill-opacity="0" stroke="#000000" stroke-width="9" stroke-opacity="0.03"></use></g><g><filter id="shadow4580690" x="-82.86" y="-81.83" width="393.69" height="393.69" filterUnits="userSpaceOnUse" primitiveUnits="userSpaceOnUse"><feFlood></feFlood><feComposite in2="SourceAlpha" operator="out"></feComposite><feGaussianBlur stdDeviation="6.56"></feGaussianBlur><feOffset dx="-13" dy="-13" result="afterOffset"></feOffset><feFlood flood-color="#c8cece" flood-opacity="0.39"></feFlood><feComposite in2="afterOffset" operator="in"></feComposite><feMorphology operator="dilate" radius="14"></feMorphology><feComposite in2="SourceAlpha" operator="in"></feComposite></filter><path d="M91.62 36.17C91.62 36.17 112.06 36.17 112.06 36.17C125.61 36.17 162.13 36.17 177.2 36.17C178.65 36.17 179.83 37.34 179.83 38.79C179.83 67.21 179.83 149.42 179.83 177.73C179.83 179.46 178.43 180.86 176.7 180.86C178.78 180.86 155.71 180.86 107.48 180.86C59.25 180.86 36.18 180.86 38.27 180.86C36.54 180.86 35.14 179.46 35.14 177.73C35.14 149.42 35.14 66.8 35.14 38.29C35.14 37.12 36.09 36.17 37.26 36.17C50.17 36.17 80.32 36.17 91.62 36.17Z" id="aed2bNqYt" fill="white" fill-opacity="1" filter="url(#shadow4580690)"></path></g></g></g></g></svg>