<?xml version="1.0" encoding="UTF-8" standalone="no"?>
<!DOCTYPE svg PUBLIC "-//W3C//DTD SVG 1.1//EN" "http://www.w3.org/Graphics/SVG/1.1/DTD/svg11.dtd">
<svg version="1.1" xmlns="http://www.w3.org/2000/svg" xmlns:xlink="http://www.w3.org/1999/xlink" preserveAspectRatio="xMidYMid meet" viewBox="0 0 214 214" width="214" height="214"><defs><path d="M194.68 5.62C202.24 5.62 208.38 11.76 208.38 19.32C208.38 57.13 208.38 155.84 208.38 193.39C208.38 201.67 201.67 208.38 193.39 208.38C155.84 208.38 57.13 208.38 19.32 208.38C11.76 208.38 5.62 202.24 5.62 194.68C5.62 156.87 5.62 58.16 5.62 20.61C5.62 12.33 12.33 5.62 20.61 5.62C58.16 5.62 156.87 5.62 194.68 5.62Z" id="c8cJJD8Gx"></path><path d="M187.56 20.58C191.32 20.58 194.38 23.64 194.38 27.41C194.38 60.8 194.38 153.8 194.38 187.11C194.38 191.12 191.12 194.38 187.11 194.38C153.8 194.38 60.8 194.38 27.41 194.38C23.64 194.38 20.58 191.32 20.58 187.56C20.58 154.16 20.58 60.38 20.58 26.88C20.58 23.4 23.4 20.58 26.88 20.58C60.38 20.58 154.16 20.58 187.56 20.58Z" id="a6GxV9wqUk"></path><path d="M177.1 33.32C180.38 33.32 183.04 35.98 183.04 39.25C183.04 68.29 183.04 149.15 183.04 178.1C183.04 181.6 180.2 184.43 176.71 184.43C147.75 184.43 66.9 184.43 37.86 184.43C34.58 184.43 31.93 181.77 31.93 178.49C31.93 149.46 31.93 67.92 31.93 38.79C31.93 35.77 34.38 33.32 37.4 33.32C66.53 33.32 148.07 33.32 177.1 33.32Z" id="b3mI8qacAl"></path><clipPath id="clipd6MuuqwVNz"><use xlink:href="#b3mI8qacAl" opacity="1"></use></clipPath><path d="M91.62 41.95C91.62 41.95 110.53 41.95 110.53 41.95C123.06 41.95 156.84 41.95 170.79 41.95C172.13 41.95 173.22 43.04 173.22 44.38C173.22 70.66 173.22 146.71 173.22 172.9C173.22 174.5 171.92 175.8 170.32 175.8C157.52 175.8 139.76 175.8 106.29 175.8C72.83 175.8 55.07 175.8 42.26 175.8C40.67 175.8 39.37 174.5 39.37 172.9C39.37 146.71 39.37 70.29 39.37 43.91C39.37 42.83 40.25 41.95 41.33 41.95C53.28 41.95 81.17 41.95 91.62 41.95Z" id="dpO2mTNjA"></path><linearGradient id="gradientenoUPbFcc" gradientUnits="userSpaceOnUse" x1="47.86" y1="54.58" x2="140.68" y2="141.34"><stop style="stop-color: #51a098;stop-opacity: 0.66" offset="0%"></stop><stop style="stop-color: #9ececa;stop-opacity: 1" offset="100%"></stop></linearGradient><path d="M173.15 37.2C175.11 37.2 176.7 38.8 176.7 40.76C176.7 67.97 176.7 145.2 176.7 172.2C176.7 174.74 174.65 176.8 172.11 176.8C144.87 176.8 67.56 176.8 40.27 176.8C37.85 176.8 35.88 174.83 35.88 172.41C35.88 145.37 35.88 67.79 35.88 40.54C35.88 38.7 37.38 37.2 39.22 37.2C66.72 37.2 145.69 37.2 173.15 37.2Z" id="b5S6ULxINz"></path><radialGradient id="gradientb2E1S4EAq3" gradientUnits="userSpaceOnUse" cx="106.29" cy="77.57" dx="106.29" dy="217.17" r="139.59"><stop style="stop-color: #f19871;stop-opacity: 0.8" offset="0%"></stop><stop style="stop-color: #f03800;stop-opacity: 0.87" offset="100%"></stop></radialGradient></defs><g><g><g><g><filter id="shadow5471347" x="-24.38" y="-24.38" width="264.75" height="264.75" filterUnits="userSpaceOnUse" primitiveUnits="userSpaceOnUse"><feFlood></feFlood><feComposite in2="SourceAlpha" operator="in"></feComposite><feGaussianBlur stdDeviation="2.83"></feGaussianBlur><feOffset dx="2" dy="2" result="afterOffset"></feOffset><feFlood flood-color="#000000" flood-opacity="0.14"></feFlood><feComposite in2="afterOffset" operator="in"></feComposite><feMorphology operator="dilate" radius="7"></feMorphology><feComposite in2="SourceAlpha" operator="out"></feComposite></filter><path d="M194.68 5.62C202.24 5.62 208.38 11.76 208.38 19.32C208.38 57.13 208.38 155.84 208.38 193.39C208.38 201.67 201.67 208.38 193.39 208.38C155.84 208.38 57.13 208.38 19.32 208.38C11.76 208.38 5.62 202.24 5.62 194.68C5.62 156.87 5.62 58.16 5.62 20.61C5.62 12.33 12.33 5.62 20.61 5.62C58.16 5.62 156.87 5.62 194.68 5.62Z" id="a1kkHn0qCG" fill="white" fill-opacity="1" filter="url(#shadow5471347)"></path></g><use xlink:href="#c8cJJD8Gx" opacity="1" fill="#327878" fill-opacity="0.42"></use><g><use xlink:href="#c8cJJD8Gx" opacity="1" fill-opacity="0" stroke="#000000" stroke-width="9" stroke-opacity="1"></use></g><g><filter id="shadow3215243" x="-59.38" y="-59.38" width="338.75" height="333.75" filterUnits="userSpaceOnUse" primitiveUnits="userSpaceOnUse"><feFlood></feFlood><feComposite in2="SourceAlpha" operator="out"></feComposite><feGaussianBlur stdDeviation="4.9"></feGaussianBlur><feOffset dx="6" dy="1" result="afterOffset"></feOffset><feFlood flood-color="#95cec8" flood-opacity="0.8"></feFlood><feComposite in2="afterOffset" operator="in"></feComposite><feMorphology operator="dilate" radius="6"></feMorphology><feComposite in2="SourceAlpha" operator="in"></feComposite></filter><path d="M194.68 5.62C202.24 5.62 208.38 11.76 208.38 19.32C208.38 57.13 208.38 155.84 208.38 193.39C208.38 201.67 201.67 208.38 193.39 208.38C155.84 208.38 57.13 208.38 19.32 208.38C11.76 208.38 5.62 202.24 5.62 194.68C5.62 156.87 5.62 58.16 5.62 20.61C5.62 12.33 12.33 5.62 20.61 5.62C58.16 5.62 156.87 5.62 194.68 5.62Z" id="b6zpsHqNay" fill="white" fill-opacity="1" filter="url(#shadow3215243)"></path></g></g><g><g><filter id="shadow5581376" x="-20.42" y="-20.42" width="255.8" height="255.8" filterUnits="userSpaceOnUse" primitiveUnits="userSpaceOnUse"><feFlood></feFlood><feComposite in2="SourceAlpha" operator="in"></feComposite><feGaussianBlur stdDeviation="4.12"></feGaussianBlur><feOffset dx="0" dy="0" result="afterOffset"></feOffset><feFlood flood-color="#000000" flood-opacity="1"></feFlood><feComposite in2="afterOffset" operator="in"></feComposite><feMorphology operator="dilate" radius="2"></feMorphology><feComposite in2="SourceAlpha" operator="out"></feComposite></filter><path d="M187.56 20.58C191.32 20.58 194.38 23.64 194.38 27.41C194.38 60.8 194.38 153.8 194.38 187.11C194.38 191.12 191.12 194.38 187.11 194.38C153.8 194.38 60.8 194.38 27.41 194.38C23.64 194.38 20.58 191.32 20.58 187.56C20.58 154.16 20.58 60.38 20.58 26.88C20.58 23.4 23.4 20.58 26.88 20.58C60.38 20.58 154.16 20.58 187.56 20.58Z" id="aswemZiok" fill="white" fill-opacity="1" filter="url(#shadow5581376)"></path></g><use xlink:href="#a6GxV9wqUk" opacity="1" fill="#66b0a1" fill-opacity="0.78"></use><g><use xlink:href="#a6GxV9wqUk" opacity="1" fill-opacity="0" stroke="#0b0d0d" stroke-width="6" stroke-opacity="0.87"></use></g><g><filter id="shadow2123598" x="-24.42" y="-24.42" width="263.8" height="265.8" filterUnits="userSpaceOnUse" primitiveUnits="userSpaceOnUse"><feFlood></feFlood><feComposite in2="SourceAlpha" operator="out"></feComposite><feGaussianBlur stdDeviation="4.24"></feGaussianBlur><feOffset dx="0" dy="2" result="afterOffset"></feOffset><feFlood flood-color="#2b2727" flood-opacity="0.36"></feFlood><feComposite in2="afterOffset" operator="in"></feComposite><feMorphology operator="dilate" radius="2"></feMorphology><feComposite in2="SourceAlpha" operator="in"></feComposite></filter><path d="M187.56 20.58C191.32 20.58 194.38 23.64 194.38 27.41C194.38 60.8 194.38 153.8 194.38 187.11C194.38 191.12 191.12 194.38 187.11 194.38C153.8 194.38 60.8 194.38 27.41 194.38C23.64 194.38 20.58 191.32 20.58 187.56C20.58 154.16 20.58 60.38 20.58 26.88C20.58 23.4 23.4 20.58 26.88 20.58C60.38 20.58 154.16 20.58 187.56 20.58Z" id="dlLt8vt20" fill="white" fill-opacity="1" filter="url(#shadow2123598)"></path></g></g><g><g><filter id="shadow7634436" x="-65.07" y="-63.68" width="345.11" height="345.11" filterUnits="userSpaceOnUse" primitiveUnits="userSpaceOnUse"><feFlood></feFlood><feComposite in2="SourceAlpha" operator="in"></feComposite><feGaussianBlur stdDeviation="6.71"></feGaussianBlur><feOffset dx="0" dy="0" result="afterOffset"></feOffset><feFlood flood-color="#1e302e" flood-opacity="0.58"></feFlood><feComposite in2="afterOffset" operator="in"></feComposite><feMorphology operator="dilate" radius="2"></feMorphology><feComposite in2="SourceAlpha" operator="out"></feComposite></filter><path d="M177.1 33.32C180.38 33.32 183.04 35.98 183.04 39.25C183.04 68.29 183.04 149.15 183.04 178.1C183.04 181.6 180.2 184.43 176.71 184.43C147.75 184.43 66.9 184.43 37.86 184.43C34.58 184.43 31.93 181.77 31.93 178.49C31.93 149.46 31.93 67.92 31.93 38.79C31.93 35.77 34.38 33.32 37.4 33.32C66.53 33.32 148.07 33.32 177.1 33.32Z" id="g4p5q7fnd" fill="white" fill-opacity="1" filter="url(#shadow7634436)"></path></g><use xlink:href="#b3mI8qacAl" opacity="1" fill="#e9f8f8" fill-opacity="0.93"></use><g clip-path="url(#clipd6MuuqwVNz)"><use xlink:href="#b3mI8qacAl" opacity="1" fill-opacity="0" stroke="#ffffff" stroke-width="2" stroke-opacity="1"></use></g><g><filter id="shadow10151398" x="-89.07" y="-87.68" width="393.11" height="393.11" filterUnits="userSpaceOnUse" primitiveUnits="userSpaceOnUse"><feFlood></feFlood><feComposite in2="SourceAlpha" operator="out"></feComposite><feGaussianBlur stdDeviation="7.07"></feGaussianBlur><feOffset dx="0" dy="0" result="afterOffset"></feOffset><feFlood flood-color="#000000" flood-opacity="0.14"></feFlood><feComposite in2="afterOffset" operator="in"></feComposite><feMorphology operator="dilate" radius="16"></feMorphology><feComposite in2="SourceAlpha" operator="in"></feComposite></filter><path d="M177.1 33.32C180.38 33.32 183.04 35.98 183.04 39.25C183.04 68.29 183.04 149.15 183.04 178.1C183.04 181.6 180.2 184.43 176.71 184.43C147.75 184.43 66.9 184.43 37.86 184.43C34.58 184.43 31.93 181.77 31.93 178.49C31.93 149.46 31.93 67.92 31.93 38.79C31.93 35.77 34.38 33.32 37.4 33.32C66.53 33.32 148.07 33.32 177.1 33.32Z" id="f7aJZXYoos" fill="white" fill-opacity="1" filter="url(#shadow10151398)"></path></g></g><g><g><filter id="shadow9793836" x="-54.63" y="-52.05" width="330.85" height="329.85" filterUnits="userSpaceOnUse" primitiveUnits="userSpaceOnUse"><feFlood></feFlood><feComposite in2="SourceAlpha" operator="in"></feComposite><feGaussianBlur stdDeviation="6.16"></feGaussianBlur><feOffset dx="9" dy="8" result="afterOffset"></feOffset><feFlood flood-color="#000000" flood-opacity="0.48"></feFlood><feComposite in2="afterOffset" operator="in"></feComposite><feMorphology operator="dilate" radius="4"></feMorphology><feComposite in2="SourceAlpha" operator="out"></feComposite></filter><path d="M91.62 41.95C91.62 41.95 110.53 41.95 110.53 41.95C123.06 41.95 156.84 41.95 170.79 41.95C172.13 41.95 173.22 43.04 173.22 44.38C173.22 70.66 173.22 146.71 173.22 172.9C173.22 174.5 171.92 175.8 170.32 175.8C157.52 175.8 139.76 175.8 106.29 175.8C72.83 175.8 55.07 175.8 42.26 175.8C40.67 175.8 39.37 174.5 39.37 172.9C39.37 146.71 39.37 70.29 39.37 43.91C39.37 42.83 40.25 41.95 41.33 41.95C53.28 41.95 81.17 41.95 91.62 41.95Z" id="d6T6lqqNC" fill="white" fill-opacity="1" filter="url(#shadow9793836)"></path></g><use xlink:href="#dpO2mTNjA" opacity="1" fill="url(#gradientenoUPbFcc)"></use><g><use xlink:href="#dpO2mTNjA" opacity="1" fill-opacity="0" stroke="#000000" stroke-width="9" stroke-opacity="0.03"></use></g><g><filter id="shadow10352685" x="-92.63" y="-90.05" width="410.85" height="410.85" filterUnits="userSpaceOnUse" primitiveUnits="userSpaceOnUse"><feFlood></feFlood><feComposite in2="SourceAlpha" operator="out"></feComposite><feGaussianBlur stdDeviation="6.71"></feGaussianBlur><feOffset dx="-13" dy="-13" result="afterOffset"></feOffset><feFlood flood-color="#b3dede" flood-opacity="0.28"></feFlood><feComposite in2="afterOffset" operator="in"></feComposite><feMorphology operator="dilate" radius="24"></feMorphology><feComposite in2="SourceAlpha" operator="in"></feComposite></filter><path d="M91.62 41.95C91.62 41.95 110.53 41.95 110.53 41.95C123.06 41.95 156.84 41.95 170.79 41.95C172.13 41.95 173.22 43.04 173.22 44.38C173.22 70.66 173.22 146.71 173.22 172.9C173.22 174.5 171.92 175.8 170.32 175.8C157.52 175.8 139.76 175.8 106.29 175.8C72.83 175.8 55.07 175.8 42.26 175.8C40.67 175.8 39.37 174.5 39.37 172.9C39.37 146.71 39.37 70.29 39.37 43.91C39.37 42.83 40.25 41.95 41.33 41.95C53.28 41.95 81.17 41.95 91.62 41.95Z" id="cq6GcQ1WV" fill="white" fill-opacity="1" filter="url(#shadow10352685)"></path></g></g><g><g><filter id="shadow2466479" x="-45.12" y="-43.8" width="303.82" height="302.59" filterUnits="userSpaceOnUse" primitiveUnits="userSpaceOnUse"><feFlood></feFlood><feComposite in2="SourceAlpha" operator="in"></feComposite><feGaussianBlur stdDeviation="5.83"></feGaussianBlur><feOffset dx="1" dy="1" result="afterOffset"></feOffset><feFlood flood-color="#d75118" flood-opacity="0.85"></feFlood><feComposite in2="afterOffset" operator="in"></feComposite><feMorphology operator="dilate" radius="7"></feMorphology><feComposite in2="SourceAlpha" operator="out"></feComposite></filter><path d="M173.15 37.2C175.11 37.2 176.7 38.8 176.7 40.76C176.7 67.97 176.7 145.2 176.7 172.2C176.7 174.74 174.65 176.8 172.11 176.8C144.87 176.8 67.56 176.8 40.27 176.8C37.85 176.8 35.88 174.83 35.88 172.41C35.88 145.37 35.88 67.79 35.88 40.54C35.88 38.7 37.38 37.2 39.22 37.2C66.72 37.2 145.69 37.2 173.15 37.2Z" id="e1OWBBX8K9" fill="white" fill-opacity="1" filter="url(#shadow2466479)"></path></g><use xlink:href="#b5S6ULxINz" opacity="1" fill="url(#gradientb2E1S4EAq3)"></use><g><use xlink:href="#b5S6ULxINz" opacity="1" fill-opacity="0" stroke="#272516" stroke-width="1" stroke-opacity="0.24"></use></g></g></g></g></svg>