<?xml version="1.0" encoding="UTF-8" standalone="no"?>
<!DOCTYPE svg PUBLIC "-//W3C//DTD SVG 1.1//EN" "http://www.w3.org/Graphics/SVG/1.1/DTD/svg11.dtd">
<svg version="1.1" xmlns="http://www.w3.org/2000/svg" xmlns:xlink="http://www.w3.org/1999/xlink" preserveAspectRatio="xMidYMid meet" viewBox="0 0 180 180" width="180" height="180"><defs><path d="M165.65 9.5C169.18 9.5 172.04 12.36 172.04 15.89C172.04 47.12 172.04 134.09 172.04 165.24C172.04 168.99 168.99 172.04 165.24 172.04C134.09 172.04 47.12 172.04 15.89 172.04C12.36 172.04 9.5 169.18 9.5 165.65C9.5 134.42 9.5 46.72 9.5 15.39C9.5 12.14 12.14 9.5 15.39 9.5C46.72 9.5 134.42 9.5 165.65 9.5Z" id="d4GrDTLyFv"></path><path d="M155.88 21.41C158.94 21.41 161.43 23.9 161.43 26.96C161.43 54.12 161.43 129.73 161.43 156.82C161.43 160.08 158.78 162.73 155.51 162.73C128.43 162.73 52.82 162.73 25.66 162.73C22.6 162.73 20.11 160.24 20.11 157.18C20.11 130.03 20.11 53.77 20.11 26.53C20.11 23.71 22.4 21.41 25.23 21.41C52.47 21.41 128.72 21.41 155.88 21.41Z" id="avIid0FWP"></path><clipPath id="clipf2KH4xgFdT"><use xlink:href="#avIid0FWP" opacity="1"></use></clipPath><path d="M75.93 24.08C75.93 24.08 95.05 24.08 95.05 24.08C107.72 24.08 141.88 24.08 155.97 24.08C157.33 24.08 158.43 25.18 158.43 26.53C158.43 53.1 158.43 129.99 158.43 156.46C158.43 158.08 157.12 159.39 155.5 159.39C142.55 159.39 124.6 159.39 90.77 159.39C56.94 159.39 38.99 159.39 26.04 159.39C24.42 159.39 23.11 158.08 23.11 156.46C23.11 129.99 23.11 52.73 23.11 26.06C23.11 24.96 24 24.08 25.1 24.08C37.18 24.08 65.37 24.08 75.93 24.08Z" id="a5rPIyZp2R"></path><linearGradient id="gradientfh2dawxN9" gradientUnits="userSpaceOnUse" x1="90.77" y1="24.08" x2="90.77" y2="159.39"><stop style="stop-color: #ffffff;stop-opacity: 0.57" offset="0%"></stop><stop style="stop-color: #065e57;stop-opacity: 0" offset="100%"></stop></linearGradient></defs><g><g><g><g><filter id="shadow2378949" x="-31.5" y="-31.5" width="244.54" height="244.54" filterUnits="userSpaceOnUse" primitiveUnits="userSpaceOnUse"><feFlood></feFlood><feComposite in2="SourceAlpha" operator="in"></feComposite><feGaussianBlur stdDeviation="4.12"></feGaussianBlur><feOffset dx="0" dy="0" result="afterOffset"></feOffset><feFlood flood-color="#000000" flood-opacity="1"></feFlood><feComposite in2="afterOffset" operator="in"></feComposite><feMorphology operator="dilate" radius="2"></feMorphology><feComposite in2="SourceAlpha" operator="out"></feComposite></filter><path d="M165.65 9.5C169.18 9.5 172.04 12.36 172.04 15.89C172.04 47.12 172.04 134.09 172.04 165.24C172.04 168.99 168.99 172.04 165.24 172.04C134.09 172.04 47.12 172.04 15.89 172.04C12.36 172.04 9.5 169.18 9.5 165.65C9.5 134.42 9.5 46.72 9.5 15.39C9.5 12.14 12.14 9.5 15.39 9.5C46.72 9.5 134.42 9.5 165.65 9.5Z" id="bcPd6vGXP" fill="white" fill-opacity="1" filter="url(#shadow2378949)"></path></g><use xlink:href="#d4GrDTLyFv" opacity="1" fill="#9fcec6" fill-opacity="1"></use><g><use xlink:href="#d4GrDTLyFv" opacity="1" fill-opacity="0" stroke="#0b0d0d" stroke-width="6" stroke-opacity="0.87"></use></g><g><filter id="shadow1530084" x="-35.5" y="-35.5" width="252.54" height="254.54" filterUnits="userSpaceOnUse" primitiveUnits="userSpaceOnUse"><feFlood></feFlood><feComposite in2="SourceAlpha" operator="out"></feComposite><feGaussianBlur stdDeviation="4.24"></feGaussianBlur><feOffset dx="0" dy="2" result="afterOffset"></feOffset><feFlood flood-color="#2b2727" flood-opacity="0.36"></feFlood><feComposite in2="afterOffset" operator="in"></feComposite><feMorphology operator="dilate" radius="2"></feMorphology><feComposite in2="SourceAlpha" operator="in"></feComposite></filter><path d="M165.65 9.5C169.18 9.5 172.04 12.36 172.04 15.89C172.04 47.12 172.04 134.09 172.04 165.24C172.04 168.99 168.99 172.04 165.24 172.04C134.09 172.04 47.12 172.04 15.89 172.04C12.36 172.04 9.5 169.18 9.5 165.65C9.5 134.42 9.5 46.72 9.5 15.39C9.5 12.14 12.14 9.5 15.39 9.5C46.72 9.5 134.42 9.5 165.65 9.5Z" id="d1GnZYYsp9" fill="white" fill-opacity="1" filter="url(#shadow1530084)"></path></g></g><g><g><filter id="shadow10574036" x="-76.89" y="-75.59" width="335.32" height="335.32" filterUnits="userSpaceOnUse" primitiveUnits="userSpaceOnUse"><feFlood></feFlood><feComposite in2="SourceAlpha" operator="in"></feComposite><feGaussianBlur stdDeviation="6.71"></feGaussianBlur><feOffset dx="0" dy="0" result="afterOffset"></feOffset><feFlood flood-color="#1e4642" flood-opacity="0.58"></feFlood><feComposite in2="afterOffset" operator="in"></feComposite><feMorphology operator="dilate" radius="2"></feMorphology><feComposite in2="SourceAlpha" operator="out"></feComposite></filter><path d="M155.88 21.41C158.94 21.41 161.43 23.9 161.43 26.96C161.43 54.12 161.43 129.73 161.43 156.82C161.43 160.08 158.78 162.73 155.51 162.73C128.43 162.73 52.82 162.73 25.66 162.73C22.6 162.73 20.11 160.24 20.11 157.18C20.11 130.03 20.11 53.77 20.11 26.53C20.11 23.71 22.4 21.41 25.23 21.41C52.47 21.41 128.72 21.41 155.88 21.41Z" id="bvS5xnXSm" fill="white" fill-opacity="1" filter="url(#shadow10574036)"></path></g><use xlink:href="#avIid0FWP" opacity="1" fill="#d6eae7" fill-opacity="0.93"></use><g clip-path="url(#clipf2KH4xgFdT)"><use xlink:href="#avIid0FWP" opacity="1" fill-opacity="0" stroke="#ffffff" stroke-width="2" stroke-opacity="1"></use></g><g><filter id="shadow4937272" x="-100.89" y="-99.59" width="383.32" height="383.32" filterUnits="userSpaceOnUse" primitiveUnits="userSpaceOnUse"><feFlood></feFlood><feComposite in2="SourceAlpha" operator="out"></feComposite><feGaussianBlur stdDeviation="7.07"></feGaussianBlur><feOffset dx="0" dy="0" result="afterOffset"></feOffset><feFlood flood-color="#000000" flood-opacity="0.14"></feFlood><feComposite in2="afterOffset" operator="in"></feComposite><feMorphology operator="dilate" radius="16"></feMorphology><feComposite in2="SourceAlpha" operator="in"></feComposite></filter><path d="M155.88 21.41C158.94 21.41 161.43 23.9 161.43 26.96C161.43 54.12 161.43 129.73 161.43 156.82C161.43 160.08 158.78 162.73 155.51 162.73C128.43 162.73 52.82 162.73 25.66 162.73C22.6 162.73 20.11 160.24 20.11 157.18C20.11 130.03 20.11 53.77 20.11 26.53C20.11 23.71 22.4 21.41 25.23 21.41C52.47 21.41 128.72 21.41 155.88 21.41Z" id="b12KijMnbx" fill="white" fill-opacity="1" filter="url(#shadow4937272)"></path></g></g><g><g><filter id="shadow5286293" x="-70.89" y="-69.92" width="332.32" height="331.32" filterUnits="userSpaceOnUse" primitiveUnits="userSpaceOnUse"><feFlood></feFlood><feComposite in2="SourceAlpha" operator="in"></feComposite><feGaussianBlur stdDeviation="6.16"></feGaussianBlur><feOffset dx="9" dy="8" result="afterOffset"></feOffset><feFlood flood-color="#000000" flood-opacity="0.66"></feFlood><feComposite in2="afterOffset" operator="in"></feComposite><feMorphology operator="dilate" radius="4"></feMorphology><feComposite in2="SourceAlpha" operator="out"></feComposite></filter><path d="M75.93 24.08C75.93 24.08 95.05 24.08 95.05 24.08C107.72 24.08 141.88 24.08 155.97 24.08C157.33 24.08 158.43 25.18 158.43 26.53C158.43 53.1 158.43 129.99 158.43 156.46C158.43 158.08 157.12 159.39 155.5 159.39C142.55 159.39 124.6 159.39 90.77 159.39C56.94 159.39 38.99 159.39 26.04 159.39C24.42 159.39 23.11 158.08 23.11 156.46C23.11 129.99 23.11 52.73 23.11 26.06C23.11 24.96 24 24.08 25.1 24.08C37.18 24.08 65.37 24.08 75.93 24.08Z" id="b3PGyGSa2b" fill="white" fill-opacity="1" filter="url(#shadow5286293)"></path></g><use xlink:href="#a5rPIyZp2R" opacity="1" fill="url(#gradientfh2dawxN9)"></use><g><use xlink:href="#a5rPIyZp2R" opacity="1" fill-opacity="0" stroke="#000000" stroke-width="9" stroke-opacity="0.03"></use></g><g><filter id="shadow7253858" x="-102.89" y="-101.92" width="399.32" height="408.32" filterUnits="userSpaceOnUse" primitiveUnits="userSpaceOnUse"><feFlood></feFlood><feComposite in2="SourceAlpha" operator="out"></feComposite><feGaussianBlur stdDeviation="6.56"></feGaussianBlur><feOffset dx="12" dy="21" result="afterOffset"></feOffset><feFlood flood-color="#c0ebeb" flood-opacity="0.8"></feFlood><feComposite in2="afterOffset" operator="in"></feComposite><feMorphology operator="dilate" radius="14"></feMorphology><feComposite in2="SourceAlpha" operator="in"></feComposite></filter><path d="M75.93 24.08C75.93 24.08 95.05 24.08 95.05 24.08C107.72 24.08 141.88 24.08 155.97 24.08C157.33 24.08 158.43 25.18 158.43 26.53C158.43 53.1 158.43 129.99 158.43 156.46C158.43 158.08 157.12 159.39 155.5 159.39C142.55 159.39 124.6 159.39 90.77 159.39C56.94 159.39 38.99 159.39 26.04 159.39C24.42 159.39 23.11 158.08 23.11 156.46C23.11 129.99 23.11 52.73 23.11 26.06C23.11 24.96 24 24.08 25.1 24.08C37.18 24.08 65.37 24.08 75.93 24.08Z" id="b6rab41UL" fill="white" fill-opacity="1" filter="url(#shadow7253858)"></path></g></g></g></g></svg>