<?xml version="1.0" encoding="UTF-8" standalone="no"?>
<!DOCTYPE svg PUBLIC "-//W3C//DTD SVG 1.1//EN" "http://www.w3.org/Graphics/SVG/1.1/DTD/svg11.dtd">
<svg version="1.1" xmlns="http://www.w3.org/2000/svg" xmlns:xlink="http://www.w3.org/1999/xlink" preserveAspectRatio="xMidYMid meet" viewBox="0 0 395 861" width="395" height="861"><defs><path d="M372.87 5C382.46 5 390.23 12.77 390.23 22.36C390.23 189.16 390.23 672.18 390.23 838.97C390.23 848.56 382.46 856.34 372.87 856.34C299.25 856.34 95.75 856.34 22.13 856.34C12.54 856.34 4.77 848.56 4.77 838.97C4.77 672.18 4.77 189.16 4.77 22.36C4.77 12.77 12.54 5 22.13 5C95.75 5 299.25 5 372.87 5Z" id="b3nAN2mOTR"></path><radialGradient id="gradientbpGgBQfV" gradientUnits="userSpaceOnUse" cx="197.5" cy="5" dx="197.5" dy="856.34" r="851.34"><stop style="stop-color: #e4b192;stop-opacity: 1" offset="0%"></stop><stop style="stop-color: #9e4822;stop-opacity: 1" offset="100%"></stop></radialGradient></defs><g><g><g><use xlink:href="#b3nAN2mOTR" opacity="1" fill="url(#gradientbpGgBQfV)"></use><g><use xlink:href="#b3nAN2mOTR" opacity="1" fill-opacity="0" stroke="#000000" stroke-width="6" stroke-opacity="0.79"></use></g><g><filter id="shadow5351949" x="-103.23" y="-103" width="602.46" height="1068.34" filterUnits="userSpaceOnUse" primitiveUnits="userSpaceOnUse"><feFlood></feFlood><feComposite in2="SourceAlpha" operator="out"></feComposite><feGaussianBlur stdDeviation="7.07"></feGaussianBlur><feOffset dx="1" dy="1" result="afterOffset"></feOffset><feFlood flood-color="#6f6f6f" flood-opacity="0.8"></feFlood><feComposite in2="afterOffset" operator="in"></feComposite><feMorphology operator="dilate" radius="2"></feMorphology><feComposite in2="SourceAlpha" operator="in"></feComposite></filter><path d="M372.87 5C382.46 5 390.23 12.77 390.23 22.36C390.23 189.16 390.23 672.18 390.23 838.97C390.23 848.56 382.46 856.34 372.87 856.34C299.25 856.34 95.75 856.34 22.13 856.34C12.54 856.34 4.77 848.56 4.77 838.97C4.77 672.18 4.77 189.16 4.77 22.36C4.77 12.77 12.54 5 22.13 5C95.75 5 299.25 5 372.87 5Z" id="c3bhNqIELZ" fill="white" fill-opacity="1" filter="url(#shadow5351949)"></path></g></g></g></g></svg>