<?xml version="1.0" encoding="UTF-8" standalone="no"?>
<!DOCTYPE svg PUBLIC "-//W3C//DTD SVG 1.1//EN" "http://www.w3.org/Graphics/SVG/1.1/DTD/svg11.dtd">
<svg version="1.1" xmlns="http://www.w3.org/2000/svg" xmlns:xlink="http://www.w3.org/1999/xlink" preserveAspectRatio="xMidYMid meet" viewBox="0 0 1080 226" width="1080" height="226"><defs><path d="M1048.96 0C1066.11 0 1080 13.89 1080 31.04C1080 70.03 1080 158.68 1080 198.34C1080 213.62 1067.62 226 1052.34 226C841.88 226 238.12 226 27.66 226C12.38 226 0 213.62 0 198.34C0 158.68 0 70.03 0 31.04C0 13.89 13.89 0 31.04 0C240.83 0 839.17 0 1048.96 0Z" id="b2wIgPXsEZ"></path><linearGradient id="gradientc4sQXZQb5" gradientUnits="userSpaceOnUse" x1="540" y1="8.6" x2="587.9" y2="305.52"><stop style="stop-color: #d79c7a;stop-opacity: 1" offset="0%"></stop><stop style="stop-color: #a15a3c;stop-opacity: 1" offset="100%"></stop></linearGradient><clipPath id="clipg4vpvyPSNb"><use xlink:href="#b2wIgPXsEZ" opacity="1"></use></clipPath></defs><g><g><g><use xlink:href="#b2wIgPXsEZ" opacity="1" fill="url(#gradientc4sQXZQb5)"></use><g clip-path="url(#clipg4vpvyPSNb)"><use xlink:href="#b2wIgPXsEZ" opacity="1" fill-opacity="0" stroke="#000000" stroke-width="10" stroke-opacity="1"></use></g><g><filter id="shadow10056026" x="-116" y="-116" width="1313" height="458" filterUnits="userSpaceOnUse" primitiveUnits="userSpaceOnUse"><feFlood></feFlood><feComposite in2="SourceAlpha" operator="out"></feComposite><feGaussianBlur stdDeviation="7.07"></feGaussianBlur><feOffset dx="1" dy="0" result="afterOffset"></feOffset><feFlood flood-color="#000000" flood-opacity="0.45"></feFlood><feComposite in2="afterOffset" operator="in"></feComposite><feMorphology operator="dilate" radius="10"></feMorphology><feComposite in2="SourceAlpha" operator="in"></feComposite></filter><path d="M1048.96 0C1066.11 0 1080 13.89 1080 31.04C1080 70.03 1080 158.68 1080 198.34C1080 213.62 1067.62 226 1052.34 226C841.88 226 238.12 226 27.66 226C12.38 226 0 213.62 0 198.34C0 158.68 0 70.03 0 31.04C0 13.89 13.89 0 31.04 0C240.83 0 839.17 0 1048.96 0Z" id="c2a93ImcxQ" fill="white" fill-opacity="1" filter="url(#shadow10056026)"></path></g></g></g></g></svg>