<?xml version="1.0" encoding="UTF-8" standalone="no"?>
<!DOCTYPE svg PUBLIC "-//W3C//DTD SVG 1.1//EN" "http://www.w3.org/Graphics/SVG/1.1/DTD/svg11.dtd">
<svg version="1.1" xmlns="http://www.w3.org/2000/svg" xmlns:xlink="http://www.w3.org/1999/xlink" preserveAspectRatio="xMidYMid meet" viewBox="0 0 64 64" width="64" height="64"><defs><path d="M37.35 29.28L39.14 29.28C39.14 35.67 39.14 39.65 39.14 41.25C39.14 41.51 38.92 41.73 38.66 41.73C35.9 41.73 28.09 41.73 25.32 41.73C25.07 41.73 24.86 41.52 24.86 41.27C24.86 39.67 24.86 35.68 24.86 29.28L26.65 29.28C26.65 27.49 26.65 26.37 26.65 25.93C26.65 25.82 26.56 25.73 26.45 25.73C25.42 25.73 22.6 25.73 21.59 25.73C21.43 25.73 21.29 25.86 21.29 26.03C21.29 29.88 21.29 41.14 21.29 44.99C21.29 45.15 21.43 45.28 21.59 45.28C25.81 45.28 37.92 45.28 42.08 45.28C42.43 45.28 42.71 45 42.71 44.66C42.71 40.87 42.71 29.85 42.71 25.99C42.71 25.84 42.59 25.73 42.45 25.73C41.43 25.73 38.58 25.73 37.54 25.73C37.44 25.73 37.35 25.82 37.35 25.92C37.35 26.37 37.35 27.49 37.35 29.28Z" id="d1EUNpJWoL"></path><path d="M30.21 22.9L30.21 31.51L33.55 31.51L33.55 22.9C34.64 23.98 35.32 24.66 35.59 24.93C35.66 25 35.76 25 35.83 24.93C36.28 24.48 37.5 23.27 37.95 22.82C38.02 22.75 38.02 22.64 37.95 22.57C36.73 21.36 33.38 18.02 32.21 16.85C32.03 16.67 31.73 16.67 31.55 16.85C30.38 18.02 27.03 21.36 25.82 22.57C25.75 22.64 25.75 22.75 25.82 22.83C26.27 23.27 27.48 24.48 27.93 24.93C28 25 28.1 25 28.17 24.93C28.44 24.66 29.12 23.98 30.21 22.9Z" id="b1NXMAHlL3"></path></defs><g><g><g><use xlink:href="#d1EUNpJWoL" opacity="1" fill="#000000" fill-opacity="1"></use><g><use xlink:href="#d1EUNpJWoL" opacity="1" fill-opacity="0" stroke="#000000" stroke-width="0.7" stroke-opacity="1"></use></g></g><g><use xlink:href="#b1NXMAHlL3" opacity="1" fill="#000000" fill-opacity="1"></use><g><use xlink:href="#b1NXMAHlL3" opacity="1" fill-opacity="0" stroke="#000000" stroke-width="0.7" stroke-opacity="1"></use></g></g></g></g></svg>