<?xml version="1.0" encoding="UTF-8" standalone="no"?>
<!DOCTYPE svg PUBLIC "-//W3C//DTD SVG 1.1//EN" "http://www.w3.org/Graphics/SVG/1.1/DTD/svg11.dtd">
<svg version="1.1" xmlns="http://www.w3.org/2000/svg" xmlns:xlink="http://www.w3.org/1999/xlink" preserveAspectRatio="xMidYMid meet" viewBox="0 0 64 64" width="64" height="64"><defs><path d="M22.75 18.96C22.34 18.73 21.84 18.74 21.44 18.97C21.03 19.21 20.79 19.64 20.79 20.11C20.79 22.49 20.79 41.51 20.79 43.89C20.79 44.36 21.03 44.79 21.44 45.03C21.65 45.15 21.88 45.21 22.11 45.21C22.33 45.21 22.55 45.15 22.75 45.04C24.87 43.85 41.77 34.34 43.89 33.15C44.3 32.92 44.56 32.48 44.56 32C44.56 31.52 44.3 31.08 43.89 30.85C39.66 28.47 24.87 20.15 22.75 18.96Z" id="c1UYHGQfP5"></path></defs><g><g><g><use xlink:href="#c1UYHGQfP5" opacity="1" fill="#000000" fill-opacity="1"></use><g><use xlink:href="#c1UYHGQfP5" opacity="1" fill-opacity="0" stroke="#000000" stroke-width="1" stroke-opacity="0"></use></g></g></g></g></svg>