<?xml version="1.0" encoding="UTF-8" standalone="no"?>
<!DOCTYPE svg PUBLIC "-//W3C//DTD SVG 1.1//EN" "http://www.w3.org/Graphics/SVG/1.1/DTD/svg11.dtd">
<svg version="1.1" xmlns="http://www.w3.org/2000/svg" xmlns:xlink="http://www.w3.org/1999/xlink" preserveAspectRatio="xMidYMid meet" viewBox="0 0 292 292" width="292" height="292"><defs><path d="M189.26 28.41L221.71 49.73L224.66 241.18L189.26 265.16L189.26 28.41Z" id="c1O5eWS3bd"></path><linearGradient id="gradientb9aZ5JThJ" gradientUnits="userSpaceOnUse" x1="224.66" y1="151.73" x2="189.26" y2="151.73"><stop style="stop-color: #a0f6f5;stop-opacity: 0" offset="0%"></stop><stop style="stop-color: #0c5650;stop-opacity: 1" offset="100%"></stop></linearGradient><path d="M286.94 146C286.94 223.79 223.79 286.94 146 286.94C68.21 286.94 5.06 223.79 5.06 146C5.06 68.21 68.21 5.06 146 5.06C223.79 5.06 286.94 68.21 286.94 146Z" id="b16R33D4F"></path><path d="M102.74 21.37C113.4 19.32 120.07 18.03 122.74 17.52C142.12 13.79 162.1 14.4 181.22 19.31C182.29 19.58 184.97 20.27 189.26 21.37L189.26 270.93C174.84 275.03 160.42 277.08 146 277.08C131.58 277.08 117.16 275.03 102.74 270.93L102.74 21.37Z" id="d2qn3VMyF"></path><path d="M150.38 20.96C219.61 23.38 273.85 81.55 271.43 150.78C269.01 220 210.85 274.25 141.62 271.83C72.39 269.41 18.15 211.24 20.57 142.02C22.99 72.79 81.15 18.55 150.38 20.96Z" id="h5e4niVlCj"></path><path d="M102.74 21.84C113.4 19.79 120.07 18.51 122.74 17.99C142.12 14.26 162.1 14.87 181.22 19.78C182.29 20.06 184.97 20.74 189.26 21.84L189.26 271.41C174.84 275.5 160.42 277.55 146 277.55C131.58 277.55 117.16 275.5 102.74 271.41L102.74 21.84Z" id="b1yJoAIyMD"></path><linearGradient id="gradientg4p9CAna9v" gradientUnits="userSpaceOnUse" x1="146" y1="15.56" x2="146" y2="277.55"><stop style="stop-color: #ffffff;stop-opacity: 0.66" offset="0%"></stop><stop style="stop-color: #065e56;stop-opacity: 0" offset="100%"></stop></linearGradient><path d="M102.74 251.79C102.74 253.65 101.79 255.71 100.43 256.64C98.92 257.65 97.77 255.28 95.95 254.51C95.54 254.34 81.82 246.93 81.44 246.65C78.01 244.12 73.6 240.89 68.2 236.98L68.81 55.29L84.51 44.83C94.07 39.93 100.05 36.86 102.44 35.63C102.58 35.57 102.74 35.66 102.74 35.82C102.74 79.01 102.74 208.53 102.74 251.79Z" id="c43aAURIme"></path><linearGradient id="gradienta6EK1h5ts" gradientUnits="userSpaceOnUse" x1="68.2" y1="141.62" x2="102.74" y2="141.62"><stop style="stop-color: #adedf1;stop-opacity: 0" offset="0%"></stop><stop style="stop-color: #022b2d;stop-opacity: 1" offset="100%"></stop></linearGradient><path d="M146 27.53L146 27.53L146 110.78L146 127.86L146 124.91L146 27.53Z" id="a1B9Ni4Y6Z"></path></defs><g><g><g><use xlink:href="#c1O5eWS3bd" opacity="1" fill="url(#gradientb9aZ5JThJ)"></use></g><g><g><filter id="shadow11382189" x="-6.94" y="-6.94" width="305.88" height="305.88" filterUnits="userSpaceOnUse" primitiveUnits="userSpaceOnUse"><feFlood></feFlood><feComposite in2="SourceAlpha" operator="in"></feComposite><feGaussianBlur stdDeviation="1.41"></feGaussianBlur><feOffset dx="0" dy="0" result="afterOffset"></feOffset><feFlood flood-color="#000000" flood-opacity="0.17"></feFlood><feComposite in2="afterOffset" operator="in"></feComposite><feMorphology operator="dilate" radius="3"></feMorphology><feComposite in2="SourceAlpha" operator="out"></feComposite></filter><path d="M286.94 146C286.94 223.79 223.79 286.94 146 286.94C68.21 286.94 5.06 223.79 5.06 146C5.06 68.21 68.21 5.06 146 5.06C223.79 5.06 286.94 68.21 286.94 146Z" id="b4sSCCDWna" fill="white" fill-opacity="1" filter="url(#shadow11382189)"></path></g><use xlink:href="#b16R33D4F" opacity="1" fill="#b9f3f1" fill-opacity="1"></use><g><use xlink:href="#b16R33D4F" opacity="1" fill-opacity="0" stroke="#000000" stroke-width="10" stroke-opacity="1"></use></g><g><filter id="shadow11019154" x="-59.94" y="-59.94" width="417.88" height="412.88" filterUnits="userSpaceOnUse" primitiveUnits="userSpaceOnUse"><feFlood></feFlood><feComposite in2="SourceAlpha" operator="out"></feComposite><feGaussianBlur stdDeviation="4.9"></feGaussianBlur><feOffset dx="6" dy="1" result="afterOffset"></feOffset><feFlood flood-color="#9ae2ce" flood-opacity="0.8"></feFlood><feComposite in2="afterOffset" operator="in"></feComposite><feMorphology operator="dilate" radius="6"></feMorphology><feComposite in2="SourceAlpha" operator="in"></feComposite></filter><path d="M286.94 146C286.94 223.79 223.79 286.94 146 286.94C68.21 286.94 5.06 223.79 5.06 146C5.06 68.21 68.21 5.06 146 5.06C223.79 5.06 286.94 68.21 286.94 146Z" id="jbW6u1tu5" fill="white" fill-opacity="1" filter="url(#shadow11019154)"></path></g></g><g><g><filter id="shadow6497369" x="58.74" y="-28.89" width="175.52" height="350.97" filterUnits="userSpaceOnUse" primitiveUnits="userSpaceOnUse"><feFlood></feFlood><feComposite in2="SourceAlpha" operator="in"></feComposite><feGaussianBlur stdDeviation="4.24"></feGaussianBlur><feOffset dx="1" dy="1" result="afterOffset"></feOffset><feFlood flood-color="#000000" flood-opacity="0.5"></feFlood><feComposite in2="afterOffset" operator="in"></feComposite><feMorphology operator="dilate" radius="2"></feMorphology><feComposite in2="SourceAlpha" operator="out"></feComposite></filter><path d="M102.74 21.37C113.4 19.32 120.07 18.03 122.74 17.52C142.12 13.79 162.1 14.4 181.22 19.31C182.29 19.58 184.97 20.27 189.26 21.37L189.26 270.93C174.84 275.03 160.42 277.08 146 277.08C131.58 277.08 117.16 275.03 102.74 270.93L102.74 21.37Z" id="bbtcfoDNG" fill="white" fill-opacity="1" filter="url(#shadow6497369)"></path></g><use xlink:href="#d2qn3VMyF" opacity="1" fill="#c3f8ef" fill-opacity="1"></use><g><use xlink:href="#d2qn3VMyF" opacity="1" fill-opacity="0" stroke="#000000" stroke-width="4" stroke-opacity="1"></use></g></g><g><g><filter id="shadow13258785" x="-15.51" y="-15.11" width="330.02" height="328.02" filterUnits="userSpaceOnUse" primitiveUnits="userSpaceOnUse"><feFlood></feFlood><feComposite in2="SourceAlpha" operator="in"></feComposite><feGaussianBlur stdDeviation="3.32"></feGaussianBlur><feOffset dx="7" dy="5" result="afterOffset"></feOffset><feFlood flood-color="#000000" flood-opacity="0.5"></feFlood><feComposite in2="afterOffset" operator="in"></feComposite><feMorphology operator="dilate" radius="2"></feMorphology><feComposite in2="SourceAlpha" operator="out"></feComposite></filter><path d="M150.38 20.96C219.61 23.38 273.85 81.55 271.43 150.78C269.01 220 210.85 274.25 141.62 271.83C72.39 269.41 18.15 211.24 20.57 142.02C22.99 72.79 81.15 18.55 150.38 20.96Z" id="jmhLhS5j2" fill="white" fill-opacity="1" filter="url(#shadow13258785)"></path></g><use xlink:href="#h5e4niVlCj" opacity="1" fill="#66b0a1" fill-opacity="1"></use><g><use xlink:href="#h5e4niVlCj" opacity="1" fill-opacity="0" stroke="#101515" stroke-width="14" stroke-opacity="0.89"></use></g></g><g><g><filter id="shadow7518323" x="8.74" y="-78.41" width="283.52" height="451.97" filterUnits="userSpaceOnUse" primitiveUnits="userSpaceOnUse"><feFlood></feFlood><feComposite in2="SourceAlpha" operator="in"></feComposite><feGaussianBlur stdDeviation="6.16"></feGaussianBlur><feOffset dx="9" dy="2" result="afterOffset"></feOffset><feFlood flood-color="#000000" flood-opacity="0.5"></feFlood><feComposite in2="afterOffset" operator="in"></feComposite><feMorphology operator="dilate" radius="4"></feMorphology><feComposite in2="SourceAlpha" operator="out"></feComposite></filter><path d="M102.74 21.84C113.4 19.79 120.07 18.51 122.74 17.99C142.12 14.26 162.1 14.87 181.22 19.78C182.29 20.06 184.97 20.74 189.26 21.84L189.26 271.41C174.84 275.5 160.42 277.55 146 277.55C131.58 277.55 117.16 275.5 102.74 271.41L102.74 21.84Z" id="cLqrghlv7" fill="white" fill-opacity="1" filter="url(#shadow7518323)"></path></g><use xlink:href="#b1yJoAIyMD" opacity="1" fill="#66b0a1" fill-opacity="1"></use><use xlink:href="#b1yJoAIyMD" opacity="1" fill="url(#gradientg4p9CAna9v)"></use><g><use xlink:href="#b1yJoAIyMD" opacity="1" fill-opacity="0" stroke="#000000" stroke-width="13" stroke-opacity="1"></use></g><g><filter id="shadow5308484" x="-23.26" y="-110.41" width="350.52" height="534.97" filterUnits="userSpaceOnUse" primitiveUnits="userSpaceOnUse"><feFlood></feFlood><feComposite in2="SourceAlpha" operator="out"></feComposite><feGaussianBlur stdDeviation="6.56"></feGaussianBlur><feOffset dx="12" dy="21" result="afterOffset"></feOffset><feFlood flood-color="#c0ebeb" flood-opacity="0.8"></feFlood><feComposite in2="afterOffset" operator="in"></feComposite><feMorphology operator="dilate" radius="14"></feMorphology><feComposite in2="SourceAlpha" operator="in"></feComposite></filter><path d="M102.74 21.84C113.4 19.79 120.07 18.51 122.74 17.99C142.12 14.26 162.1 14.87 181.22 19.78C182.29 20.06 184.97 20.74 189.26 21.84L189.26 271.41C174.84 275.5 160.42 277.55 146 277.55C131.58 277.55 117.16 275.5 102.74 271.41L102.74 21.84Z" id="b8shuap3Gr" fill="white" fill-opacity="1" filter="url(#shadow5308484)"></path></g></g><g><use xlink:href="#c43aAURIme" opacity="0.75" fill="url(#gradienta6EK1h5ts)"></use></g><g><g><use xlink:href="#a1B9Ni4Y6Z" opacity="1" fill-opacity="0" stroke="#000000" stroke-width="23" stroke-opacity="0.79"></use></g></g></g></g></svg>