<?xml version="1.0" encoding="UTF-8" standalone="no"?>
<!DOCTYPE svg PUBLIC "-//W3C//DTD SVG 1.1//EN" "http://www.w3.org/Graphics/SVG/1.1/DTD/svg11.dtd">
<svg version="1.1" xmlns="http://www.w3.org/2000/svg" xmlns:xlink="http://www.w3.org/1999/xlink" preserveAspectRatio="xMidYMid meet" viewBox="0 0 292 292" width="292" height="292"><defs><path d="M287.38 146.44C287.38 224.23 224.23 287.38 146.44 287.38C68.65 287.38 5.5 224.23 5.5 146.44C5.5 68.65 68.65 5.5 146.44 5.5C224.23 5.5 287.38 68.65 287.38 146.44Z" id="c9m98MYNQ1"></path><path d="M150.82 21.4C220.05 23.82 274.29 81.99 271.87 151.22C269.45 220.44 211.29 274.69 142.06 272.27C72.83 269.85 18.59 211.68 21.01 142.46C23.43 73.23 81.59 18.99 150.82 21.4Z" id="fI5lnjuko"></path><path d="M189.7 33.85L221.36 55.8L224.24 235.34L210.03 247.85L189.7 255.82L189.7 33.85Z" id="b1a9Mr6Hmf"></path><linearGradient id="gradienta5qfUTjJfm" gradientUnits="userSpaceOnUse" x1="224.24" y1="149.48" x2="189.7" y2="149.48"><stop style="stop-color: #ae6a4c;stop-opacity: 1" offset="0%"></stop><stop style="stop-color: #9d4b26;stop-opacity: 1" offset="100%"></stop></linearGradient><path d="M103.18 250.8C103.18 252.63 102.23 254.67 100.87 255.58C99.36 256.58 98.21 256.33 96.39 255.58C95.98 255.41 82.26 246 81.88 245.72C78.45 243.23 74.04 240.05 68.64 236.19L69.25 56.96L84.95 44.65C93.29 40.86 98.5 38.5 100.59 37.55C100.72 37.49 100.87 37.59 100.87 37.73C102.41 151.37 103.18 222.39 103.18 250.8Z" id="by8Z0AP5U"></path><linearGradient id="gradientc3vStHyyE8" gradientUnits="userSpaceOnUse" x1="68.64" y1="142.31" x2="103.18" y2="142.31"><stop style="stop-color: #ae6a4c;stop-opacity: 1" offset="0%"></stop><stop style="stop-color: #5a3727;stop-opacity: 1" offset="100%"></stop></linearGradient><path d="M103.18 21.81C113.84 19.76 120.51 18.47 123.18 17.96C142.56 14.23 162.54 14.84 181.66 19.74C182.73 20.02 185.41 20.71 189.7 21.81L189.7 271.37C175.28 275.47 160.86 277.52 146.44 277.52C132.02 277.52 117.6 275.47 103.18 271.37L103.18 21.81Z" id="cw7QelvLa"></path><path d="M103.18 21.28C113.84 19.23 120.51 17.95 123.18 17.43C142.56 13.7 162.54 14.31 181.66 19.22C182.73 19.5 185.41 20.18 189.7 21.28L189.7 270.85C175.28 274.94 160.86 276.99 146.44 276.99C132.02 276.99 117.6 274.94 103.18 270.85L103.18 21.28Z" id="oKKVSa73C"></path><linearGradient id="gradientdraTgCZLV" gradientUnits="userSpaceOnUse" x1="146.44" y1="15" x2="146.44" y2="276.99"><stop style="stop-color: #f2d2c6;stop-opacity: 1" offset="0%"></stop><stop style="stop-color: #bf7b55;stop-opacity: 1" offset="100%"></stop></linearGradient><path d="" id="a11XlKIsVr"></path><path d="M146.44 27.97L146.44 27.97L146.44 111.22L146.44 128.3L146.44 125.35L146.44 27.97Z" id="a8noviYj"></path></defs><g><g><g><g><filter id="shadow10340255" x="-8.5" y="-8.5" width="311.88" height="310.88" filterUnits="userSpaceOnUse" primitiveUnits="userSpaceOnUse"><feFlood></feFlood><feComposite in2="SourceAlpha" operator="in"></feComposite><feGaussianBlur stdDeviation="1.41"></feGaussianBlur><feOffset dx="2" dy="1" result="afterOffset"></feOffset><feFlood flood-color="#000000" flood-opacity="0.17"></feFlood><feComposite in2="afterOffset" operator="in"></feComposite><feMorphology operator="dilate" radius="3"></feMorphology><feComposite in2="SourceAlpha" operator="out"></feComposite></filter><path d="M287.38 146.44C287.38 224.23 224.23 287.38 146.44 287.38C68.65 287.38 5.5 224.23 5.5 146.44C5.5 68.65 68.65 5.5 146.44 5.5C224.23 5.5 287.38 68.65 287.38 146.44Z" id="e5EpsKz50n" fill="white" fill-opacity="1" filter="url(#shadow10340255)"></path></g><use xlink:href="#c9m98MYNQ1" opacity="1" fill="#d69c7b" fill-opacity="1"></use><g><use xlink:href="#c9m98MYNQ1" opacity="1" fill-opacity="0" stroke="#000000" stroke-width="10" stroke-opacity="1"></use></g><g><filter id="shadow1494548" x="-59.5" y="-59.5" width="417.88" height="412.88" filterUnits="userSpaceOnUse" primitiveUnits="userSpaceOnUse"><feFlood></feFlood><feComposite in2="SourceAlpha" operator="out"></feComposite><feGaussianBlur stdDeviation="4.9"></feGaussianBlur><feOffset dx="6" dy="1" result="afterOffset"></feOffset><feFlood flood-color="#d5a88d" flood-opacity="1"></feFlood><feComposite in2="afterOffset" operator="in"></feComposite><feMorphology operator="dilate" radius="6"></feMorphology><feComposite in2="SourceAlpha" operator="in"></feComposite></filter><path d="M287.38 146.44C287.38 224.23 224.23 287.38 146.44 287.38C68.65 287.38 5.5 224.23 5.5 146.44C5.5 68.65 68.65 5.5 146.44 5.5C224.23 5.5 287.38 68.65 287.38 146.44Z" id="b2fxD0XlD" fill="white" fill-opacity="1" filter="url(#shadow1494548)"></path></g></g><g><g><filter id="shadow6586842" x="-15.07" y="-14.67" width="330.02" height="328.02" filterUnits="userSpaceOnUse" primitiveUnits="userSpaceOnUse"><feFlood></feFlood><feComposite in2="SourceAlpha" operator="in"></feComposite><feGaussianBlur stdDeviation="3.32"></feGaussianBlur><feOffset dx="7" dy="5" result="afterOffset"></feOffset><feFlood flood-color="#000000" flood-opacity="0.5"></feFlood><feComposite in2="afterOffset" operator="in"></feComposite><feMorphology operator="dilate" radius="2"></feMorphology><feComposite in2="SourceAlpha" operator="out"></feComposite></filter><path d="M150.82 21.4C220.05 23.82 274.29 81.99 271.87 151.22C269.45 220.44 211.29 274.69 142.06 272.27C72.83 269.85 18.59 211.68 21.01 142.46C23.43 73.23 81.59 18.99 150.82 21.4Z" id="hF2yHpL8o" fill="white" fill-opacity="1" filter="url(#shadow6586842)"></path></g><use xlink:href="#fI5lnjuko" opacity="1" fill="#ae6a4c" fill-opacity="1"></use><g><use xlink:href="#fI5lnjuko" opacity="1" fill-opacity="0" stroke="#101515" stroke-width="14" stroke-opacity="0.89"></use></g></g><g><use xlink:href="#b1a9Mr6Hmf" opacity="1" fill="url(#gradienta5qfUTjJfm)"></use></g><g><use xlink:href="#by8Z0AP5U" opacity="0.75" fill="url(#gradientc3vStHyyE8)"></use></g><g><g><filter id="shadow2912983" x="59.18" y="-28.45" width="175.52" height="350.97" filterUnits="userSpaceOnUse" primitiveUnits="userSpaceOnUse"><feFlood></feFlood><feComposite in2="SourceAlpha" operator="in"></feComposite><feGaussianBlur stdDeviation="4.24"></feGaussianBlur><feOffset dx="1" dy="1" result="afterOffset"></feOffset><feFlood flood-color="#000000" flood-opacity="0.5"></feFlood><feComposite in2="afterOffset" operator="in"></feComposite><feMorphology operator="dilate" radius="2"></feMorphology><feComposite in2="SourceAlpha" operator="out"></feComposite></filter><path d="M103.18 21.81C113.84 19.76 120.51 18.47 123.18 17.96C142.56 14.23 162.54 14.84 181.66 19.74C182.73 20.02 185.41 20.71 189.7 21.81L189.7 271.37C175.28 275.47 160.86 277.52 146.44 277.52C132.02 277.52 117.6 275.47 103.18 271.37L103.18 21.81Z" id="g9IPESsAgD" fill="white" fill-opacity="1" filter="url(#shadow2912983)"></path></g><use xlink:href="#cw7QelvLa" opacity="1" fill="#e1ad8d" fill-opacity="1"></use><g><use xlink:href="#cw7QelvLa" opacity="1" fill-opacity="0" stroke="#000000" stroke-width="4" stroke-opacity="1"></use></g></g><g><g><filter id="shadow6260577" x="9.18" y="-78.98" width="283.52" height="457.97" filterUnits="userSpaceOnUse" primitiveUnits="userSpaceOnUse"><feFlood></feFlood><feComposite in2="SourceAlpha" operator="in"></feComposite><feGaussianBlur stdDeviation="6.16"></feGaussianBlur><feOffset dx="9" dy="8" result="afterOffset"></feOffset><feFlood flood-color="#000000" flood-opacity="0.5"></feFlood><feComposite in2="afterOffset" operator="in"></feComposite><feMorphology operator="dilate" radius="4"></feMorphology><feComposite in2="SourceAlpha" operator="out"></feComposite></filter><path d="M103.18 21.28C113.84 19.23 120.51 17.95 123.18 17.43C142.56 13.7 162.54 14.31 181.66 19.22C182.73 19.5 185.41 20.18 189.7 21.28L189.7 270.85C175.28 274.94 160.86 276.99 146.44 276.99C132.02 276.99 117.6 274.94 103.18 270.85L103.18 21.28Z" id="f1wNR6o3Pq" fill="white" fill-opacity="1" filter="url(#shadow6260577)"></path></g><use xlink:href="#oKKVSa73C" opacity="1" fill="url(#gradientdraTgCZLV)"></use><g><use xlink:href="#oKKVSa73C" opacity="1" fill-opacity="0" stroke="#000000" stroke-width="13" stroke-opacity="1"></use></g><g><filter id="shadow4851334" x="-22.82" y="-110.98" width="351.52" height="534.97" filterUnits="userSpaceOnUse" primitiveUnits="userSpaceOnUse"><feFlood></feFlood><feComposite in2="SourceAlpha" operator="out"></feComposite><feGaussianBlur stdDeviation="6.56"></feGaussianBlur><feOffset dx="13" dy="21" result="afterOffset"></feOffset><feFlood flood-color="#ebd0c0" flood-opacity="0.8"></feFlood><feComposite in2="afterOffset" operator="in"></feComposite><feMorphology operator="dilate" radius="14"></feMorphology><feComposite in2="SourceAlpha" operator="in"></feComposite></filter><path d="M103.18 21.28C113.84 19.23 120.51 17.95 123.18 17.43C142.56 13.7 162.54 14.31 181.66 19.22C182.73 19.5 185.41 20.18 189.7 21.28L189.7 270.85C175.28 274.94 160.86 276.99 146.44 276.99C132.02 276.99 117.6 274.94 103.18 270.85L103.18 21.28Z" id="eDuaFr4tu" fill="white" fill-opacity="1" filter="url(#shadow4851334)"></path></g></g><g><g><use xlink:href="#a11XlKIsVr" opacity="1" fill-opacity="0" stroke="#0d0e11" stroke-width="4" stroke-opacity="1"></use></g></g><g><g><use xlink:href="#a8noviYj" opacity="1" fill-opacity="0" stroke="#000000" stroke-width="23" stroke-opacity="0.79"></use></g></g></g></g></svg>