<?xml version="1.0" encoding="UTF-8" standalone="no"?>
<!DOCTYPE svg PUBLIC "-//W3C//DTD SVG 1.1//EN" "http://www.w3.org/Graphics/SVG/1.1/DTD/svg11.dtd">
<svg version="1.1" xmlns="http://www.w3.org/2000/svg" xmlns:xlink="http://www.w3.org/1999/xlink" preserveAspectRatio="xMidYMid meet" viewBox="0 0 222 222" width="222" height="222"><defs><path d="M143.6 22.62L168 38.66L170.22 182.65L143.6 200.68L143.6 22.62Z" id="ebZev4rTx"></path><linearGradient id="gradientaYpyigHpN" gradientUnits="userSpaceOnUse" x1="170.22" y1="115.37" x2="143.6" y2="115.37"><stop style="stop-color: #a0f6f5;stop-opacity: 0" offset="0%"></stop><stop style="stop-color: #0c5650;stop-opacity: 1" offset="100%"></stop></linearGradient><path d="M217.06 111.06C217.06 169.56 169.56 217.06 111.06 217.06C52.56 217.06 5.06 169.56 5.06 111.06C5.06 52.56 52.56 5.06 111.06 5.06C169.56 5.06 217.06 52.56 217.06 111.06Z" id="dcDjXVVsF"></path><path d="M78.52 17.33C86.55 15.78 91.56 14.82 93.56 14.43C108.15 11.62 123.17 12.08 137.55 15.77C138.36 15.98 140.37 16.5 143.6 17.33L143.6 205.02C132.75 208.1 121.91 209.64 111.06 209.64C100.22 209.64 89.37 208.1 78.52 205.02L78.52 17.33Z" id="ai1Ni4o25"></path><path d="M114.35 17.02C166.42 18.84 207.22 62.59 205.4 114.65C203.58 166.72 159.83 207.51 107.77 205.7C55.7 203.88 14.91 160.13 16.72 108.06C18.54 56 62.29 15.2 114.35 17.02Z" id="a1Uawlt8tb"></path><path d="M78.52 17.68C86.55 16.14 91.56 15.17 93.56 14.79C108.15 11.98 123.17 12.44 137.55 16.13C138.36 16.34 140.37 16.86 143.6 17.68L143.6 205.38C132.75 208.46 121.91 210 111.06 210C100.22 210 89.37 208.46 78.52 205.38L78.52 17.68Z" id="nxShnpHT"></path><linearGradient id="gradientc5rMUbRuJW" gradientUnits="userSpaceOnUse" x1="111.06" y1="12.96" x2="111.06" y2="210"><stop style="stop-color: #ffffff;stop-opacity: 0.66" offset="0%"></stop><stop style="stop-color: #065e56;stop-opacity: 0" offset="100%"></stop></linearGradient><path d="M78.52 190.63C78.52 192.02 77.81 193.58 76.79 194.27C75.65 195.04 74.78 193.25 73.41 192.67C73.11 192.55 62.79 186.97 62.5 186.76C59.93 184.85 56.61 182.43 52.55 179.49L53.01 42.84L64.82 34.97C72.01 31.28 76.5 28.98 78.3 28.06C78.4 28 78.52 28.08 78.52 28.19C78.52 60.68 78.52 158.09 78.52 190.63Z" id="c57iCnLPaI"></path><linearGradient id="gradientb4N8sPfdUr" gradientUnits="userSpaceOnUse" x1="52.55" y1="107.77" x2="78.52" y2="107.77"><stop style="stop-color: #adedf1;stop-opacity: 0" offset="0%"></stop><stop style="stop-color: #022b2d;stop-opacity: 1" offset="100%"></stop></linearGradient><path d="M111.06 21.96L111.06 21.96L111.06 84.57L111.06 97.42L111.06 95.2L111.06 21.96Z" id="a3r2IS7fNa"></path></defs><g><g><g><use xlink:href="#ebZev4rTx" opacity="1" fill="url(#gradientaYpyigHpN)"></use></g><g><g><filter id="shadow12494786" x="-6.94" y="-6.94" width="236" height="236" filterUnits="userSpaceOnUse" primitiveUnits="userSpaceOnUse"><feFlood></feFlood><feComposite in2="SourceAlpha" operator="in"></feComposite><feGaussianBlur stdDeviation="1.41"></feGaussianBlur><feOffset dx="0" dy="0" result="afterOffset"></feOffset><feFlood flood-color="#000000" flood-opacity="0.17"></feFlood><feComposite in2="afterOffset" operator="in"></feComposite><feMorphology operator="dilate" radius="3"></feMorphology><feComposite in2="SourceAlpha" operator="out"></feComposite></filter><path d="M217.06 111.06C217.06 169.56 169.56 217.06 111.06 217.06C52.56 217.06 5.06 169.56 5.06 111.06C5.06 52.56 52.56 5.06 111.06 5.06C169.56 5.06 217.06 52.56 217.06 111.06Z" id="gJTX8czbB" fill="white" fill-opacity="1" filter="url(#shadow12494786)"></path></g><use xlink:href="#dcDjXVVsF" opacity="1" fill="#b9f3f1" fill-opacity="1"></use><g><use xlink:href="#dcDjXVVsF" opacity="1" fill-opacity="0" stroke="#000000" stroke-width="10" stroke-opacity="1"></use></g><g><filter id="shadow3684530" x="-59.94" y="-59.94" width="348" height="343" filterUnits="userSpaceOnUse" primitiveUnits="userSpaceOnUse"><feFlood></feFlood><feComposite in2="SourceAlpha" operator="out"></feComposite><feGaussianBlur stdDeviation="4.9"></feGaussianBlur><feOffset dx="6" dy="1" result="afterOffset"></feOffset><feFlood flood-color="#9ae2ce" flood-opacity="0.8"></feFlood><feComposite in2="afterOffset" operator="in"></feComposite><feMorphology operator="dilate" radius="6"></feMorphology><feComposite in2="SourceAlpha" operator="in"></feComposite></filter><path d="M217.06 111.06C217.06 169.56 169.56 217.06 111.06 217.06C52.56 217.06 5.06 169.56 5.06 111.06C5.06 52.56 52.56 5.06 111.06 5.06C169.56 5.06 217.06 52.56 217.06 111.06Z" id="a1QCPVVFMs" fill="white" fill-opacity="1" filter="url(#shadow3684530)"></path></g></g><g><g><filter id="shadow984154" x="34.52" y="-31.38" width="154.07" height="286.02" filterUnits="userSpaceOnUse" primitiveUnits="userSpaceOnUse"><feFlood></feFlood><feComposite in2="SourceAlpha" operator="in"></feComposite><feGaussianBlur stdDeviation="4.24"></feGaussianBlur><feOffset dx="1" dy="1" result="afterOffset"></feOffset><feFlood flood-color="#000000" flood-opacity="0.5"></feFlood><feComposite in2="afterOffset" operator="in"></feComposite><feMorphology operator="dilate" radius="2"></feMorphology><feComposite in2="SourceAlpha" operator="out"></feComposite></filter><path d="M78.52 17.33C86.55 15.78 91.56 14.82 93.56 14.43C108.15 11.62 123.17 12.08 137.55 15.77C138.36 15.98 140.37 16.5 143.6 17.33L143.6 205.02C132.75 208.1 121.91 209.64 111.06 209.64C100.22 209.64 89.37 208.1 78.52 205.02L78.52 17.33Z" id="c3btY3Xj3U" fill="white" fill-opacity="1" filter="url(#shadow984154)"></path></g><use xlink:href="#ai1Ni4o25" opacity="1" fill="#c3f8ef" fill-opacity="1"></use><g><use xlink:href="#ai1Ni4o25" opacity="1" fill-opacity="0" stroke="#000000" stroke-width="4" stroke-opacity="1"></use></g></g><g><g><filter id="shadow16175793" x="-19.33" y="-19.04" width="267.79" height="265.79" filterUnits="userSpaceOnUse" primitiveUnits="userSpaceOnUse"><feFlood></feFlood><feComposite in2="SourceAlpha" operator="in"></feComposite><feGaussianBlur stdDeviation="3.32"></feGaussianBlur><feOffset dx="7" dy="5" result="afterOffset"></feOffset><feFlood flood-color="#000000" flood-opacity="0.5"></feFlood><feComposite in2="afterOffset" operator="in"></feComposite><feMorphology operator="dilate" radius="2"></feMorphology><feComposite in2="SourceAlpha" operator="out"></feComposite></filter><path d="M114.35 17.02C166.42 18.84 207.22 62.59 205.4 114.65C203.58 166.72 159.83 207.51 107.77 205.7C55.7 203.88 14.91 160.13 16.72 108.06C18.54 56 62.29 15.2 114.35 17.02Z" id="b16CpkNqHE" fill="white" fill-opacity="1" filter="url(#shadow16175793)"></path></g><use xlink:href="#a1Uawlt8tb" opacity="1" fill="#66b0a1" fill-opacity="1"></use><g><use xlink:href="#a1Uawlt8tb" opacity="1" fill-opacity="0" stroke="#101515" stroke-width="8" stroke-opacity="0.89"></use></g></g><g><g><filter id="shadow2344765" x="-15.48" y="-81.02" width="262.07" height="387.02" filterUnits="userSpaceOnUse" primitiveUnits="userSpaceOnUse"><feFlood></feFlood><feComposite in2="SourceAlpha" operator="in"></feComposite><feGaussianBlur stdDeviation="6.16"></feGaussianBlur><feOffset dx="9" dy="2" result="afterOffset"></feOffset><feFlood flood-color="#000000" flood-opacity="0.5"></feFlood><feComposite in2="afterOffset" operator="in"></feComposite><feMorphology operator="dilate" radius="4"></feMorphology><feComposite in2="SourceAlpha" operator="out"></feComposite></filter><path d="M78.52 17.68C86.55 16.14 91.56 15.17 93.56 14.79C108.15 11.98 123.17 12.44 137.55 16.13C138.36 16.34 140.37 16.86 143.6 17.68L143.6 205.38C132.75 208.46 121.91 210 111.06 210C100.22 210 89.37 208.46 78.52 205.38L78.52 17.68Z" id="ic56auLIL" fill="white" fill-opacity="1" filter="url(#shadow2344765)"></path></g><use xlink:href="#nxShnpHT" opacity="1" fill="#66b0a1" fill-opacity="1"></use><use xlink:href="#nxShnpHT" opacity="1" fill="url(#gradientc5rMUbRuJW)"></use><g><use xlink:href="#nxShnpHT" opacity="1" fill-opacity="0" stroke="#000000" stroke-width="7" stroke-opacity="1"></use></g><g><filter id="shadow12556039" x="-47.48" y="-113.02" width="329.07" height="470.02" filterUnits="userSpaceOnUse" primitiveUnits="userSpaceOnUse"><feFlood></feFlood><feComposite in2="SourceAlpha" operator="out"></feComposite><feGaussianBlur stdDeviation="6.56"></feGaussianBlur><feOffset dx="12" dy="21" result="afterOffset"></feOffset><feFlood flood-color="#c0ebeb" flood-opacity="0.8"></feFlood><feComposite in2="afterOffset" operator="in"></feComposite><feMorphology operator="dilate" radius="14"></feMorphology><feComposite in2="SourceAlpha" operator="in"></feComposite></filter><path d="M78.52 17.68C86.55 16.14 91.56 15.17 93.56 14.79C108.15 11.98 123.17 12.44 137.55 16.13C138.36 16.34 140.37 16.86 143.6 17.68L143.6 205.38C132.75 208.46 121.91 210 111.06 210C100.22 210 89.37 208.46 78.52 205.38L78.52 17.68Z" id="a12enePIXu" fill="white" fill-opacity="1" filter="url(#shadow12556039)"></path></g></g><g><use xlink:href="#c57iCnLPaI" opacity="0.75" fill="url(#gradientb4N8sPfdUr)"></use></g><g><g><use xlink:href="#a3r2IS7fNa" opacity="1" fill-opacity="0" stroke="#000000" stroke-width="17" stroke-opacity="0.79"></use></g></g></g></g></svg>