<?xml version="1.0" encoding="UTF-8" standalone="no"?>
<!DOCTYPE svg PUBLIC "-//W3C//DTD SVG 1.1//EN" "http://www.w3.org/Graphics/SVG/1.1/DTD/svg11.dtd">
<svg version="1.1" xmlns="http://www.w3.org/2000/svg" xmlns:xlink="http://www.w3.org/1999/xlink" preserveAspectRatio="xMidYMid meet" viewBox="0 0 352 352" width="352" height="352"><defs><path d="M228.57 33.39L267.95 59.26L271.53 291.58L228.57 320.67L228.57 33.39Z" id="afx4SSn7N"></path><linearGradient id="gradienta56QncAoez" gradientUnits="userSpaceOnUse" x1="271.53" y1="183.04" x2="228.57" y2="183.04"><stop style="stop-color: #a0f6f5;stop-opacity: 0" offset="0%"></stop><stop style="stop-color: #0c5650;stop-opacity: 1" offset="100%"></stop></linearGradient><path d="M347.1 176.08C347.1 270.47 270.47 347.1 176.08 347.1C81.69 347.1 5.06 270.47 5.06 176.08C5.06 81.69 81.69 5.06 176.08 5.06C270.47 5.06 347.1 81.69 347.1 176.08Z" id="b1Vx9PAAiN"></path><path d="M123.59 24.85C136.53 22.36 144.62 20.8 147.85 20.18C171.38 15.65 195.61 16.39 218.82 22.35C220.12 22.68 223.37 23.51 228.57 24.85L228.57 327.67C211.07 332.64 193.58 335.13 176.08 335.13C158.58 335.13 141.08 332.64 123.59 327.67L123.59 24.85Z" id="c633cwFQGo"></path><path d="M181.39 24.36C265.39 27.29 331.21 97.87 328.28 181.87C325.35 265.88 254.76 331.69 170.76 328.76C86.76 325.83 20.94 255.25 23.88 171.24C26.81 87.24 97.39 21.43 181.39 24.36Z" id="a1fEJiqSkO"></path><path d="M123.59 25.43C136.53 22.94 144.62 21.38 147.85 20.76C171.38 16.23 195.61 16.97 218.82 22.92C220.12 23.26 223.37 24.09 228.57 25.43L228.57 328.25C211.07 333.22 193.58 335.71 176.08 335.71C158.58 335.71 141.08 333.22 123.59 328.25L123.59 25.43Z" id="a1u9JeTuSu"></path><linearGradient id="gradientj4R4cpO3zu" gradientUnits="userSpaceOnUse" x1="176.08" y1="17.8" x2="176.08" y2="335.71"><stop style="stop-color: #ffffff;stop-opacity: 0.66" offset="0%"></stop><stop style="stop-color: #065e56;stop-opacity: 0" offset="100%"></stop></linearGradient><path d="M123.59 304.45C123.59 306.7 122.44 309.21 120.78 310.32C118.95 311.56 117.55 308.68 115.34 307.75C114.85 307.54 98.2 298.55 97.74 298.21C93.58 295.13 88.22 291.22 81.67 286.47L82.42 66.01L101.47 53.32C113.07 47.37 120.32 43.65 123.23 42.16C123.39 42.08 123.59 42.19 123.59 42.38C123.59 94.79 123.59 251.95 123.59 304.45Z" id="bdihCGQ4E"></path><linearGradient id="gradientcoYfXhKoC" gradientUnits="userSpaceOnUse" x1="81.67" y1="170.77" x2="123.59" y2="170.77"><stop style="stop-color: #adedf1;stop-opacity: 0" offset="0%"></stop><stop style="stop-color: #022b2d;stop-opacity: 1" offset="100%"></stop></linearGradient><path d="M176.08 32.32L176.08 32.32L176.08 133.34L176.08 154.07L176.08 150.49L176.08 32.32Z" id="bKpm2yr7M"></path></defs><g><g><g><use xlink:href="#afx4SSn7N" opacity="1" fill="url(#gradienta56QncAoez)"></use></g><g><g><filter id="shadow10533449" x="-6.94" y="-6.94" width="366.03" height="366.03" filterUnits="userSpaceOnUse" primitiveUnits="userSpaceOnUse"><feFlood></feFlood><feComposite in2="SourceAlpha" operator="in"></feComposite><feGaussianBlur stdDeviation="1.41"></feGaussianBlur><feOffset dx="0" dy="0" result="afterOffset"></feOffset><feFlood flood-color="#000000" flood-opacity="0.17"></feFlood><feComposite in2="afterOffset" operator="in"></feComposite><feMorphology operator="dilate" radius="3"></feMorphology><feComposite in2="SourceAlpha" operator="out"></feComposite></filter><path d="M347.1 176.08C347.1 270.47 270.47 347.1 176.08 347.1C81.69 347.1 5.06 270.47 5.06 176.08C5.06 81.69 81.69 5.06 176.08 5.06C270.47 5.06 347.1 81.69 347.1 176.08Z" id="d4jUUbChrl" fill="white" fill-opacity="1" filter="url(#shadow10533449)"></path></g><use xlink:href="#b1Vx9PAAiN" opacity="1" fill="#b9f3f1" fill-opacity="1"></use><g><use xlink:href="#b1Vx9PAAiN" opacity="1" fill-opacity="0" stroke="#000000" stroke-width="10" stroke-opacity="1"></use></g><g><filter id="shadow5896564" x="-59.94" y="-59.94" width="478.03" height="473.03" filterUnits="userSpaceOnUse" primitiveUnits="userSpaceOnUse"><feFlood></feFlood><feComposite in2="SourceAlpha" operator="out"></feComposite><feGaussianBlur stdDeviation="4.9"></feGaussianBlur><feOffset dx="6" dy="1" result="afterOffset"></feOffset><feFlood flood-color="#9ae2ce" flood-opacity="0.8"></feFlood><feComposite in2="afterOffset" operator="in"></feComposite><feMorphology operator="dilate" radius="6"></feMorphology><feComposite in2="SourceAlpha" operator="in"></feComposite></filter><path d="M347.1 176.08C347.1 270.47 270.47 347.1 176.08 347.1C81.69 347.1 5.06 270.47 5.06 176.08C5.06 81.69 81.69 5.06 176.08 5.06C270.47 5.06 347.1 81.69 347.1 176.08Z" id="apuYOR3vK" fill="white" fill-opacity="1" filter="url(#shadow5896564)"></path></g></g><g><g><filter id="shadow7490660" x="79.59" y="-26.75" width="193.99" height="406.87" filterUnits="userSpaceOnUse" primitiveUnits="userSpaceOnUse"><feFlood></feFlood><feComposite in2="SourceAlpha" operator="in"></feComposite><feGaussianBlur stdDeviation="4.24"></feGaussianBlur><feOffset dx="1" dy="1" result="afterOffset"></feOffset><feFlood flood-color="#000000" flood-opacity="0.5"></feFlood><feComposite in2="afterOffset" operator="in"></feComposite><feMorphology operator="dilate" radius="2"></feMorphology><feComposite in2="SourceAlpha" operator="out"></feComposite></filter><path d="M123.59 24.85C136.53 22.36 144.62 20.8 147.85 20.18C171.38 15.65 195.61 16.39 218.82 22.35C220.12 22.68 223.37 23.51 228.57 24.85L228.57 327.67C211.07 332.64 193.58 335.13 176.08 335.13C158.58 335.13 141.08 332.64 123.59 327.67L123.59 24.85Z" id="fJVE7sysC" fill="white" fill-opacity="1" filter="url(#shadow7490660)"></path></g><use xlink:href="#c633cwFQGo" opacity="1" fill="#c3f8ef" fill-opacity="1"></use><g><use xlink:href="#c633cwFQGo" opacity="1" fill-opacity="0" stroke="#000000" stroke-width="4" stroke-opacity="1"></use></g></g><g><g><filter id="shadow1599239" x="-12.22" y="-11.74" width="383.59" height="381.59" filterUnits="userSpaceOnUse" primitiveUnits="userSpaceOnUse"><feFlood></feFlood><feComposite in2="SourceAlpha" operator="in"></feComposite><feGaussianBlur stdDeviation="3.32"></feGaussianBlur><feOffset dx="7" dy="5" result="afterOffset"></feOffset><feFlood flood-color="#000000" flood-opacity="0.5"></feFlood><feComposite in2="afterOffset" operator="in"></feComposite><feMorphology operator="dilate" radius="2"></feMorphology><feComposite in2="SourceAlpha" operator="out"></feComposite></filter><path d="M181.39 24.36C265.39 27.29 331.21 97.87 328.28 181.87C325.35 265.88 254.76 331.69 170.76 328.76C86.76 325.83 20.94 255.25 23.88 171.24C26.81 87.24 97.39 21.43 181.39 24.36Z" id="afLkSXcLe" fill="white" fill-opacity="1" filter="url(#shadow1599239)"></path></g><use xlink:href="#a1fEJiqSkO" opacity="1" fill="#66b0a1" fill-opacity="1"></use><g><use xlink:href="#a1fEJiqSkO" opacity="1" fill-opacity="0" stroke="#101515" stroke-width="17" stroke-opacity="0.89"></use></g></g><g><g><filter id="shadow4929447" x="29.59" y="-76.17" width="301.99" height="507.87" filterUnits="userSpaceOnUse" primitiveUnits="userSpaceOnUse"><feFlood></feFlood><feComposite in2="SourceAlpha" operator="in"></feComposite><feGaussianBlur stdDeviation="6.16"></feGaussianBlur><feOffset dx="9" dy="2" result="afterOffset"></feOffset><feFlood flood-color="#000000" flood-opacity="0.5"></feFlood><feComposite in2="afterOffset" operator="in"></feComposite><feMorphology operator="dilate" radius="4"></feMorphology><feComposite in2="SourceAlpha" operator="out"></feComposite></filter><path d="M123.59 25.43C136.53 22.94 144.62 21.38 147.85 20.76C171.38 16.23 195.61 16.97 218.82 22.92C220.12 23.26 223.37 24.09 228.57 25.43L228.57 328.25C211.07 333.22 193.58 335.71 176.08 335.71C158.58 335.71 141.08 333.22 123.59 328.25L123.59 25.43Z" id="f2ebtCCdo2" fill="white" fill-opacity="1" filter="url(#shadow4929447)"></path></g><use xlink:href="#a1u9JeTuSu" opacity="1" fill="#66b0a1" fill-opacity="1"></use><use xlink:href="#a1u9JeTuSu" opacity="1" fill="url(#gradientj4R4cpO3zu)"></use><g><use xlink:href="#a1u9JeTuSu" opacity="1" fill-opacity="0" stroke="#000000" stroke-width="13" stroke-opacity="1"></use></g><g><filter id="shadow12027800" x="-2.41" y="-108.17" width="368.99" height="590.87" filterUnits="userSpaceOnUse" primitiveUnits="userSpaceOnUse"><feFlood></feFlood><feComposite in2="SourceAlpha" operator="out"></feComposite><feGaussianBlur stdDeviation="6.56"></feGaussianBlur><feOffset dx="12" dy="21" result="afterOffset"></feOffset><feFlood flood-color="#c0ebeb" flood-opacity="0.8"></feFlood><feComposite in2="afterOffset" operator="in"></feComposite><feMorphology operator="dilate" radius="14"></feMorphology><feComposite in2="SourceAlpha" operator="in"></feComposite></filter><path d="M123.59 25.43C136.53 22.94 144.62 21.38 147.85 20.76C171.38 16.23 195.61 16.97 218.82 22.92C220.12 23.26 223.37 24.09 228.57 25.43L228.57 328.25C211.07 333.22 193.58 335.71 176.08 335.71C158.58 335.71 141.08 333.22 123.59 328.25L123.59 25.43Z" id="c44wUfe7L" fill="white" fill-opacity="1" filter="url(#shadow12027800)"></path></g></g><g><use xlink:href="#bdihCGQ4E" opacity="0.75" fill="url(#gradientcoYfXhKoC)"></use></g><g><g><use xlink:href="#bKpm2yr7M" opacity="1" fill-opacity="0" stroke="#000000" stroke-width="30" stroke-opacity="0.79"></use></g></g></g></g></svg>