<?xml version="1.0" encoding="UTF-8" standalone="no"?>
<!DOCTYPE svg PUBLIC "-//W3C//DTD SVG 1.1//EN" "http://www.w3.org/Graphics/SVG/1.1/DTD/svg11.dtd">
<svg version="1.1" xmlns="http://www.w3.org/2000/svg" xmlns:xlink="http://www.w3.org/1999/xlink" preserveAspectRatio="xMidYMid meet" viewBox="0 0 64 64" width="64" height="64"><defs><path d="M40.13 34.38C39.88 34.14 39.53 34.09 39.24 34.25C38.94 34.41 38.75 34.75 38.75 35.13C38.75 35.33 38.75 36.31 38.75 38.07C37.9 38.07 37.43 38.07 37.34 38.07C36.17 38.07 35.1 37.38 34.48 36.23C33.93 35.22 29.56 27.11 29.01 26.09C27.77 23.79 25.63 22.41 23.29 22.41C22.97 22.41 21.37 22.41 18.5 22.41L18.5 26.33C21.37 26.33 22.97 26.33 23.29 26.33C24.46 26.33 25.53 27.02 26.15 28.17C26.7 29.18 31.07 37.29 31.61 38.31C32.86 40.61 35 41.98 37.34 41.98C37.43 41.98 37.9 41.98 38.75 41.98C38.75 43.75 38.75 44.72 38.75 44.92C38.75 45.3 38.94 45.64 39.24 45.81C39.35 45.87 39.47 45.9 39.59 45.9C39.79 45.9 39.98 45.82 40.13 45.67C40.64 45.18 44.69 41.27 45.2 40.78C45.39 40.59 45.5 40.32 45.5 40.03C45.5 39.74 45.39 39.46 45.2 39.28C44.18 38.3 40.64 34.87 40.13 34.38Z" id="foWiJnq7f"></path><path d="M40.13 18.72C39.88 18.48 39.53 18.43 39.24 18.59C38.94 18.75 38.75 19.1 38.75 19.48C38.75 19.67 38.75 20.65 38.75 22.41C37.9 22.41 37.43 22.41 37.34 22.41C34.99 22.41 32.85 23.79 31.61 26.09C31.59 26.13 31.49 26.32 31.31 26.66L33.3 30.35C34 29.04 34.4 28.31 34.48 28.17C35.1 27.02 36.17 26.33 37.34 26.33C37.43 26.33 37.9 26.33 38.75 26.33C38.75 28.09 38.75 29.07 38.75 29.26C38.75 29.64 38.94 29.99 39.24 30.15C39.35 30.21 39.47 30.24 39.59 30.24C39.79 30.24 39.98 30.16 40.13 30.01C40.64 29.52 44.69 25.61 45.2 25.12C45.39 24.94 45.5 24.66 45.5 24.37C45.5 24.08 45.39 23.8 45.2 23.62C44.18 22.64 40.64 19.21 40.13 18.72Z" id="eK5llyFUD"></path><path d="M26.15 36.23C25.53 37.38 24.46 38.07 23.29 38.07C22.97 38.07 21.37 38.07 18.5 38.07L18.5 41.98C21.37 41.98 22.97 41.98 23.29 41.98C25.63 41.98 27.77 40.61 29.01 38.31C29.03 38.27 29.13 38.08 29.32 37.74L27.33 34.04C26.62 35.36 26.23 36.08 26.15 36.23Z" id="aiqKlqByE"></path></defs><g><g><g><use xlink:href="#foWiJnq7f" opacity="1" fill="#000000" fill-opacity="1"></use><g><use xlink:href="#foWiJnq7f" opacity="1" fill-opacity="0" stroke="#000000" stroke-width="0.5" stroke-opacity="1"></use></g></g><g><use xlink:href="#eK5llyFUD" opacity="1" fill="#000000" fill-opacity="1"></use><g><use xlink:href="#eK5llyFUD" opacity="1" fill-opacity="0" stroke="#000000" stroke-width="0.5" stroke-opacity="0.98"></use></g></g><g><use xlink:href="#aiqKlqByE" opacity="1" fill="#000000" fill-opacity="1"></use><g><use xlink:href="#aiqKlqByE" opacity="1" fill-opacity="0" stroke="#000000" stroke-width="0.5" stroke-opacity="1"></use></g></g></g></g></svg>