<?xml version="1.0" encoding="UTF-8" standalone="no"?>
<!DOCTYPE svg PUBLIC "-//W3C//DTD SVG 1.1//EN" "http://www.w3.org/Graphics/SVG/1.1/DTD/svg11.dtd">
<svg version="1.1" xmlns="http://www.w3.org/2000/svg" xmlns:xlink="http://www.w3.org/1999/xlink" preserveAspectRatio="xMidYMid meet" viewBox="0 0 900 468" width="900" height="468"><defs><path d="M845.12 15.43C867.69 15.43 885.99 33.73 885.99 56.3C885.99 135.95 885.99 332.9 885.99 412.27C885.99 435.61 867.07 454.53 843.72 454.53C678.1 454.53 223.43 454.53 57.79 454.53C34.5 454.53 15.62 435.65 15.62 412.36C15.62 332.97 15.62 137.03 15.62 57.65C15.62 34.33 34.52 15.43 57.84 15.43C223.47 15.43 679.22 15.43 845.12 15.43Z" id="d56fgRwzRf"></path><radialGradient id="gradientc19eQCeLf0" gradientUnits="userSpaceOnUse" cx="738.3" cy="60" dx="135.48" dy="454.53" r="720.45"><stop style="stop-color: #b5e9ea;stop-opacity: 1" offset="0%"></stop><stop style="stop-color: #619897;stop-opacity: 1" offset="100%"></stop></radialGradient><mask id="maska2XleN7IQn" x="-4.38" y="-4.57" width="910.36" height="479.1" maskUnits="userSpaceOnUse"><rect x="-4.38" y="-4.57" width="910.36" height="479.1" fill="white"></rect><use xlink:href="#d56fgRwzRf" opacity="1" fill="black"></use></mask><path d="" id="e3Z9jTgjDU"></path></defs><g><g><g><g><filter id="shadow7795033" x="-37.38" y="-37.57" width="981.36" height="547.1" filterUnits="userSpaceOnUse" primitiveUnits="userSpaceOnUse"><feFlood></feFlood><feComposite in2="SourceAlpha" operator="in"></feComposite><feGaussianBlur stdDeviation="4.36"></feGaussianBlur><feOffset dx="5" dy="2" result="afterOffset"></feOffset><feFlood flood-color="#000000" flood-opacity="0.14"></feFlood><feComposite in2="afterOffset" operator="in"></feComposite><feMorphology operator="dilate" radius="5"></feMorphology><feComposite in2="SourceAlpha" operator="out"></feComposite></filter><path d="M845.12 15.43C867.69 15.43 885.99 33.73 885.99 56.3C885.99 135.95 885.99 332.9 885.99 412.27C885.99 435.61 867.07 454.53 843.72 454.53C678.1 454.53 223.43 454.53 57.79 454.53C34.5 454.53 15.62 435.65 15.62 412.36C15.62 332.97 15.62 137.03 15.62 57.65C15.62 34.33 34.52 15.43 57.84 15.43C223.47 15.43 679.22 15.43 845.12 15.43Z" id="d2hrLAXnlO" fill="white" fill-opacity="1" filter="url(#shadow7795033)"></path></g><use xlink:href="#d56fgRwzRf" opacity="1" fill="url(#gradientc19eQCeLf0)"></use><g mask="url(#maska2XleN7IQn)"><use xlink:href="#d56fgRwzRf" opacity="1" fill-opacity="0" stroke="#000000" stroke-width="20" stroke-opacity="0.96"></use></g><g><filter id="shadow16459263" x="-108.38" y="-108.57" width="1118.36" height="687.1" filterUnits="userSpaceOnUse" primitiveUnits="userSpaceOnUse"><feFlood></feFlood><feComposite in2="SourceAlpha" operator="out"></feComposite><feGaussianBlur stdDeviation="7.07"></feGaussianBlur><feOffset dx="0" dy="0" result="afterOffset"></feOffset><feFlood flood-color="#000000" flood-opacity="0.46"></feFlood><feComposite in2="afterOffset" operator="in"></feComposite><feMorphology operator="dilate" radius="19"></feMorphology><feComposite in2="SourceAlpha" operator="in"></feComposite></filter><path d="M845.12 15.43C867.69 15.43 885.99 33.73 885.99 56.3C885.99 135.95 885.99 332.9 885.99 412.27C885.99 435.61 867.07 454.53 843.72 454.53C678.1 454.53 223.43 454.53 57.79 454.53C34.5 454.53 15.62 435.65 15.62 412.36C15.62 332.97 15.62 137.03 15.62 57.65C15.62 34.33 34.52 15.43 57.84 15.43C223.47 15.43 679.22 15.43 845.12 15.43Z" id="aRavr7YKJ" fill="white" fill-opacity="1" filter="url(#shadow16459263)"></path></g></g><g><g><use xlink:href="#e3Z9jTgjDU" opacity="1" fill-opacity="0" stroke="#000000" stroke-width="6" stroke-opacity="1"></use></g></g></g></g></svg>