<?xml version="1.0" encoding="UTF-8" standalone="no"?>
<!DOCTYPE svg PUBLIC "-//W3C//DTD SVG 1.1//EN" "http://www.w3.org/Graphics/SVG/1.1/DTD/svg11.dtd">
<svg version="1.1" xmlns="http://www.w3.org/2000/svg" xmlns:xlink="http://www.w3.org/1999/xlink" preserveAspectRatio="xMidYMid meet" viewBox="0 0 900 468" width="900" height="468"><defs><path d="M845.12 15.43C867.69 15.43 885.99 33.73 885.99 56.3C885.99 135.95 885.99 332.9 885.99 412.27C885.99 435.61 867.07 454.53 843.72 454.53C678.1 454.53 223.43 454.53 57.79 454.53C34.5 454.53 15.62 435.65 15.62 412.36C15.62 332.97 15.62 137.03 15.62 57.65C15.62 34.33 34.52 15.43 57.84 15.43C223.47 15.43 679.22 15.43 845.12 15.43Z" id="bmPV2BsVz"></path><radialGradient id="gradientaUY6ImCT1" gradientUnits="userSpaceOnUse" cx="738.3" cy="60" dx="135.48" dy="454.53" r="720.45"><stop style="stop-color: #b5e9ea;stop-opacity: 1" offset="0%"></stop><stop style="stop-color: #619897;stop-opacity: 1" offset="100%"></stop></radialGradient><mask id="maskc3iH8LAiWD" x="-6.38" y="-6.57" width="914.36" height="483.1" maskUnits="userSpaceOnUse"><rect x="-6.38" y="-6.57" width="914.36" height="483.1" fill="white"></rect><use xlink:href="#bmPV2BsVz" opacity="1" fill="black"></use></mask><path d="" id="cMZGHH2b"></path><path d="M830.84 422.53C832.56 422.79 832.36 425.08 830.61 425.08C673.84 425.08 218.02 425.08 60.41 425.08C52.9 425.08 46.83 419.6 46.83 412.82C46.83 340.4 46.83 128.47 46.83 54.29C46.83 53.06 48.52 52.47 49.43 53.44C145.45 153.89 259.66 235.02 392.04 296.86C520.68 356.94 666.92 398.81 830.84 422.53Z" id="aaqFOesgb"></path><radialGradient id="gradientb22SizUUSt" gradientUnits="userSpaceOnUse" cx="447.65" cy="52.44" dx="102.18" dy="443.73" r="521.97"><stop style="stop-color: #9ec9c9;stop-opacity: 0.19" offset="0%"></stop><stop style="stop-color: #9fcbcd;stop-opacity: 0.26" offset="100%"></stop></radialGradient><path d="M836.18 22.02C856.9 22.02 873.7 38.82 873.7 59.54C873.7 137.22 873.7 332.41 873.7 410C873.7 430.96 856.71 447.94 835.76 447.94C673.55 447.94 228.86 447.94 67.65 447.94C43.92 447.94 24.68 428.71 24.68 404.98C24.68 328.39 24.68 137.24 24.68 59.57C24.68 38.83 41.5 22.02 62.23 22.02C224.53 22.02 673.88 22.02 836.18 22.02Z" id="b1RfWRHRB2"></path><radialGradient id="gradiente1cpTmGnba" gradientUnits="userSpaceOnUse" cx="511.21" cy="159.06" dx="511.21" dy="575.72" r="416.67"><stop style="stop-color: #f19871;stop-opacity: 0.8" offset="0%"></stop><stop style="stop-color: #f03800;stop-opacity: 0.85" offset="100%"></stop></radialGradient></defs><g><g><g><g><filter id="shadow9682713" x="-37.38" y="-37.57" width="981.36" height="547.1" filterUnits="userSpaceOnUse" primitiveUnits="userSpaceOnUse"><feFlood></feFlood><feComposite in2="SourceAlpha" operator="in"></feComposite><feGaussianBlur stdDeviation="4.36"></feGaussianBlur><feOffset dx="5" dy="2" result="afterOffset"></feOffset><feFlood flood-color="#000000" flood-opacity="0.14"></feFlood><feComposite in2="afterOffset" operator="in"></feComposite><feMorphology operator="dilate" radius="5"></feMorphology><feComposite in2="SourceAlpha" operator="out"></feComposite></filter><path d="M845.12 15.43C867.69 15.43 885.99 33.73 885.99 56.3C885.99 135.95 885.99 332.9 885.99 412.27C885.99 435.61 867.07 454.53 843.72 454.53C678.1 454.53 223.43 454.53 57.79 454.53C34.5 454.53 15.62 435.65 15.62 412.36C15.62 332.97 15.62 137.03 15.62 57.65C15.62 34.33 34.52 15.43 57.84 15.43C223.47 15.43 679.22 15.43 845.12 15.43Z" id="acllZKWr3" fill="white" fill-opacity="1" filter="url(#shadow9682713)"></path></g><use xlink:href="#bmPV2BsVz" opacity="1" fill="url(#gradientaUY6ImCT1)"></use><g mask="url(#maskc3iH8LAiWD)"><use xlink:href="#bmPV2BsVz" opacity="1" fill-opacity="0" stroke="#000000" stroke-width="22" stroke-opacity="0.96"></use></g><g><filter id="shadow11647464" x="-108.38" y="-108.57" width="1118.36" height="687.1" filterUnits="userSpaceOnUse" primitiveUnits="userSpaceOnUse"><feFlood></feFlood><feComposite in2="SourceAlpha" operator="out"></feComposite><feGaussianBlur stdDeviation="7.07"></feGaussianBlur><feOffset dx="0" dy="0" result="afterOffset"></feOffset><feFlood flood-color="#000000" flood-opacity="0.58"></feFlood><feComposite in2="afterOffset" operator="in"></feComposite><feMorphology operator="dilate" radius="19"></feMorphology><feComposite in2="SourceAlpha" operator="in"></feComposite></filter><path d="M845.12 15.43C867.69 15.43 885.99 33.73 885.99 56.3C885.99 135.95 885.99 332.9 885.99 412.27C885.99 435.61 867.07 454.53 843.72 454.53C678.1 454.53 223.43 454.53 57.79 454.53C34.5 454.53 15.62 435.65 15.62 412.36C15.62 332.97 15.62 137.03 15.62 57.65C15.62 34.33 34.52 15.43 57.84 15.43C223.47 15.43 679.22 15.43 845.12 15.43Z" id="aYc7NqlfD" fill="white" fill-opacity="1" filter="url(#shadow11647464)"></path></g></g><g><g><use xlink:href="#cMZGHH2b" opacity="1" fill-opacity="0" stroke="#000000" stroke-width="6" stroke-opacity="1"></use></g></g><g><use xlink:href="#aaqFOesgb" opacity="1" fill="url(#gradientb22SizUUSt)"></use></g><g><g><filter id="shadow1030650" x="-56.32" y="-58.98" width="1012.02" height="588.93" filterUnits="userSpaceOnUse" primitiveUnits="userSpaceOnUse"><feFlood></feFlood><feComposite in2="SourceAlpha" operator="in"></feComposite><feGaussianBlur stdDeviation="5.83"></feGaussianBlur><feOffset dx="1" dy="1" result="afterOffset"></feOffset><feFlood flood-color="#d75118" flood-opacity="0.85"></feFlood><feComposite in2="afterOffset" operator="in"></feComposite><feMorphology operator="dilate" radius="7"></feMorphology><feComposite in2="SourceAlpha" operator="out"></feComposite></filter><path d="M836.18 22.02C856.9 22.02 873.7 38.82 873.7 59.54C873.7 137.22 873.7 332.41 873.7 410C873.7 430.96 856.71 447.94 835.76 447.94C673.55 447.94 228.86 447.94 67.65 447.94C43.92 447.94 24.68 428.71 24.68 404.98C24.68 328.39 24.68 137.24 24.68 59.57C24.68 38.83 41.5 22.02 62.23 22.02C224.53 22.02 673.88 22.02 836.18 22.02Z" id="cpVNsxxJ" fill="white" fill-opacity="1" filter="url(#shadow1030650)"></path></g><use xlink:href="#b1RfWRHRB2" opacity="1" fill="url(#gradiente1cpTmGnba)"></use><g><use xlink:href="#b1RfWRHRB2" opacity="1" fill-opacity="0" stroke="#272516" stroke-width="1" stroke-opacity="0.24"></use></g></g></g></g></svg>