<?xml version="1.0" encoding="UTF-8" standalone="no"?>
<!DOCTYPE svg PUBLIC "-//W3C//DTD SVG 1.1//EN" "http://www.w3.org/Graphics/SVG/1.1/DTD/svg11.dtd">
<svg version="1.1" xmlns="http://www.w3.org/2000/svg" xmlns:xlink="http://www.w3.org/1999/xlink" preserveAspectRatio="xMidYMid meet" viewBox="0 0 1333 468" width="1333" height="468"><defs><path d="M1306.71 10.26C1316.34 10.26 1324.15 18.07 1324.15 27.7C1324.15 113.87 1324.15 351.56 1324.15 436.88C1324.15 448.84 1314.46 458.53 1302.5 458.53C1044.17 458.53 297.56 458.53 40.92 458.53C24.31 458.53 10.85 445.07 10.85 428.46C10.85 344.82 10.85 120.6 10.85 36.12C10.85 21.84 22.43 10.26 36.71 10.26C294.2 10.26 1047.54 10.26 1306.71 10.26Z" id="cM9ALLcLQ"></path><radialGradient id="gradienta29mZ0KBN3" gradientUnits="userSpaceOnUse" cx="1101.3" cy="55.76" dx="191.7" dy="458.53" r="994.79"><stop style="stop-color: #acd4e1;stop-opacity: 1" offset="0%"></stop><stop style="stop-color: #70afb7;stop-opacity: 1" offset="100%"></stop></radialGradient><mask id="maskamwtqRTt" x="-1.15" y="-1.74" width="1337.3" height="472.27" maskUnits="userSpaceOnUse"><rect x="-1.15" y="-1.74" width="1337.3" height="472.27" fill="white"></rect><use xlink:href="#cM9ALLcLQ" opacity="1" fill="black"></use></mask><path d="" id="bJHz6Dtw2"></path></defs><g><g><g><g><filter id="shadow8409014" x="-42.15" y="-42.74" width="1424.3" height="556.27" filterUnits="userSpaceOnUse" primitiveUnits="userSpaceOnUse"><feFlood></feFlood><feComposite in2="SourceAlpha" operator="in"></feComposite><feGaussianBlur stdDeviation="4.36"></feGaussianBlur><feOffset dx="5" dy="2" result="afterOffset"></feOffset><feFlood flood-color="#000000" flood-opacity="0.14"></feFlood><feComposite in2="afterOffset" operator="in"></feComposite><feMorphology operator="dilate" radius="5"></feMorphology><feComposite in2="SourceAlpha" operator="out"></feComposite></filter><path d="M1306.71 10.26C1316.34 10.26 1324.15 18.07 1324.15 27.7C1324.15 113.87 1324.15 351.56 1324.15 436.88C1324.15 448.84 1314.46 458.53 1302.5 458.53C1044.17 458.53 297.56 458.53 40.92 458.53C24.31 458.53 10.85 445.07 10.85 428.46C10.85 344.82 10.85 120.6 10.85 36.12C10.85 21.84 22.43 10.26 36.71 10.26C294.2 10.26 1047.54 10.26 1306.71 10.26Z" id="afcO3rPPS" fill="white" fill-opacity="1" filter="url(#shadow8409014)"></path></g><use xlink:href="#cM9ALLcLQ" opacity="1" fill="url(#gradienta29mZ0KBN3)"></use><g mask="url(#maskamwtqRTt)"><use xlink:href="#cM9ALLcLQ" opacity="1" fill-opacity="0" stroke="#000000" stroke-width="12" stroke-opacity="0.79"></use></g><g><filter id="shadow15741082" x="-67.15" y="-67.74" width="1469.3" height="604.27" filterUnits="userSpaceOnUse" primitiveUnits="userSpaceOnUse"><feFlood></feFlood><feComposite in2="SourceAlpha" operator="out"></feComposite><feGaussianBlur stdDeviation="5.66"></feGaussianBlur><feOffset dx="0" dy="0" result="afterOffset"></feOffset><feFlood flood-color="#6f6f6f" flood-opacity="0.8"></feFlood><feComposite in2="afterOffset" operator="in"></feComposite><feMorphology operator="dilate" radius="9"></feMorphology><feComposite in2="SourceAlpha" operator="in"></feComposite></filter><path d="M1306.71 10.26C1316.34 10.26 1324.15 18.07 1324.15 27.7C1324.15 113.87 1324.15 351.56 1324.15 436.88C1324.15 448.84 1314.46 458.53 1302.5 458.53C1044.17 458.53 297.56 458.53 40.92 458.53C24.31 458.53 10.85 445.07 10.85 428.46C10.85 344.82 10.85 120.6 10.85 36.12C10.85 21.84 22.43 10.26 36.71 10.26C294.2 10.26 1047.54 10.26 1306.71 10.26Z" id="a4F0gw2c9" fill="white" fill-opacity="1" filter="url(#shadow15741082)"></path></g></g><g><g><use xlink:href="#bJHz6Dtw2" opacity="1" fill-opacity="0" stroke="#000000" stroke-width="4" stroke-opacity="1"></use></g></g></g></g></svg>