<?xml version="1.0" encoding="UTF-8" standalone="no"?>
<!DOCTYPE svg PUBLIC "-//W3C//DTD SVG 1.1//EN" "http://www.w3.org/Graphics/SVG/1.1/DTD/svg11.dtd">
<svg version="1.1" xmlns="http://www.w3.org/2000/svg" xmlns:xlink="http://www.w3.org/1999/xlink" preserveAspectRatio="xMidYMid meet" viewBox="0 0 800 468" width="800" height="468"><defs><path d="M774.87 15.43C780.51 15.43 785.09 20.01 785.09 25.65C785.09 111.43 785.09 356.56 785.09 441.85C785.09 448.85 779.41 454.53 772.4 454.53C621.05 454.53 183.61 454.53 33.24 454.53C23.51 454.53 15.62 446.64 15.62 436.91C15.62 352.62 15.62 115.37 15.62 30.58C15.62 22.21 22.41 15.43 30.77 15.43C181.64 15.43 623.02 15.43 774.87 15.43Z" id="b4RoZR7vf6"></path><radialGradient id="gradientaQ1jFWgmM" gradientUnits="userSpaceOnUse" cx="654.52" cy="60" dx="121.58" dy="454.53" r="663.08"><stop style="stop-color: #cad5d7;stop-opacity: 1" offset="0%"></stop><stop style="stop-color: #798181;stop-opacity: 1" offset="100%"></stop></radialGradient><mask id="maskd1bw3jHb6S" x="-6.38" y="-6.57" width="813.46" height="483.1" maskUnits="userSpaceOnUse"><rect x="-6.38" y="-6.57" width="813.46" height="483.1" fill="white"></rect><use xlink:href="#b4RoZR7vf6" opacity="1" fill="black"></use></mask><path d="" id="a3FErRpyMC"></path><path d="M758.76 435.11C760.36 435.4 760.18 437.91 758.55 437.91C612.86 437.91 189.25 437.91 42.78 437.91C35.81 437.91 30.16 431.9 30.16 424.48C30.16 345.11 30.16 112.85 30.16 31.55C30.16 30.2 31.73 29.56 32.57 30.62C121.81 140.71 227.96 229.62 350.97 297.39C470.52 363.23 606.43 409.12 758.76 435.11Z" id="h44gIoqaHm"></path><radialGradient id="gradientav2OdIi0k" gradientUnits="userSpaceOnUse" cx="402.66" cy="29.53" dx="81.6" dy="458.35" r="535.69"><stop style="stop-color: #a8afaf;stop-opacity: 0.19" offset="0%"></stop><stop style="stop-color: #aebdbe;stop-opacity: 0.16" offset="100%"></stop></radialGradient><path d="M759.99 22.02C769.13 22.02 776.54 29.43 776.54 38.57C776.54 120.44 776.54 353.25 776.54 436.06C776.54 442.62 771.22 447.94 764.65 447.94C616.66 447.94 183.17 447.94 34.83 447.94C29.23 447.94 24.68 443.4 24.68 437.8C24.68 354.64 24.68 116.71 24.68 33.9C24.68 27.34 30.01 22.02 36.57 22.02C184.56 22.02 612.93 22.02 759.99 22.02Z" id="cAOYAqXcD"></path><radialGradient id="gradientdjEi5DZUi" gradientUnits="userSpaceOnUse" cx="455.53" cy="159.06" dx="455.53" dy="575.72" r="416.67"><stop style="stop-color: #f19871;stop-opacity: 0.8" offset="0%"></stop><stop style="stop-color: #f03800;stop-opacity: 0.85" offset="100%"></stop></radialGradient></defs><g><g><g><g><filter id="shadow15051586" x="-37.38" y="-37.57" width="880.46" height="547.1" filterUnits="userSpaceOnUse" primitiveUnits="userSpaceOnUse"><feFlood></feFlood><feComposite in2="SourceAlpha" operator="in"></feComposite><feGaussianBlur stdDeviation="4.36"></feGaussianBlur><feOffset dx="5" dy="2" result="afterOffset"></feOffset><feFlood flood-color="#000000" flood-opacity="0.14"></feFlood><feComposite in2="afterOffset" operator="in"></feComposite><feMorphology operator="dilate" radius="5"></feMorphology><feComposite in2="SourceAlpha" operator="out"></feComposite></filter><path d="M774.87 15.43C780.51 15.43 785.09 20.01 785.09 25.65C785.09 111.43 785.09 356.56 785.09 441.85C785.09 448.85 779.41 454.53 772.4 454.53C621.05 454.53 183.61 454.53 33.24 454.53C23.51 454.53 15.62 446.64 15.62 436.91C15.62 352.62 15.62 115.37 15.62 30.58C15.62 22.21 22.41 15.43 30.77 15.43C181.64 15.43 623.02 15.43 774.87 15.43Z" id="cfWTOQFqt" fill="white" fill-opacity="1" filter="url(#shadow15051586)"></path></g><use xlink:href="#b4RoZR7vf6" opacity="1" fill="url(#gradientaQ1jFWgmM)"></use><g mask="url(#maskd1bw3jHb6S)"><use xlink:href="#b4RoZR7vf6" opacity="1" fill-opacity="0" stroke="#000000" stroke-width="22" stroke-opacity="0.96"></use></g><g><filter id="shadow2307378" x="-108.38" y="-108.57" width="1017.46" height="687.1" filterUnits="userSpaceOnUse" primitiveUnits="userSpaceOnUse"><feFlood></feFlood><feComposite in2="SourceAlpha" operator="out"></feComposite><feGaussianBlur stdDeviation="7.07"></feGaussianBlur><feOffset dx="0" dy="0" result="afterOffset"></feOffset><feFlood flood-color="#000000" flood-opacity="0.58"></feFlood><feComposite in2="afterOffset" operator="in"></feComposite><feMorphology operator="dilate" radius="19"></feMorphology><feComposite in2="SourceAlpha" operator="in"></feComposite></filter><path d="M774.87 15.43C780.51 15.43 785.09 20.01 785.09 25.65C785.09 111.43 785.09 356.56 785.09 441.85C785.09 448.85 779.41 454.53 772.4 454.53C621.05 454.53 183.61 454.53 33.24 454.53C23.51 454.53 15.62 446.64 15.62 436.91C15.62 352.62 15.62 115.37 15.62 30.58C15.62 22.21 22.41 15.43 30.77 15.43C181.64 15.43 623.02 15.43 774.87 15.43Z" id="g4uLTXyl6T" fill="white" fill-opacity="1" filter="url(#shadow2307378)"></path></g></g><g><g><use xlink:href="#a3FErRpyMC" opacity="1" fill-opacity="0" stroke="#000000" stroke-width="6" stroke-opacity="1"></use></g></g><g><use xlink:href="#h44gIoqaHm" opacity="1" fill="url(#gradientav2OdIi0k)"></use></g><g><g><filter id="shadow6093029" x="-56.32" y="-58.98" width="914.85" height="588.93" filterUnits="userSpaceOnUse" primitiveUnits="userSpaceOnUse"><feFlood></feFlood><feComposite in2="SourceAlpha" operator="in"></feComposite><feGaussianBlur stdDeviation="5.83"></feGaussianBlur><feOffset dx="1" dy="1" result="afterOffset"></feOffset><feFlood flood-color="#d75118" flood-opacity="0.85"></feFlood><feComposite in2="afterOffset" operator="in"></feComposite><feMorphology operator="dilate" radius="7"></feMorphology><feComposite in2="SourceAlpha" operator="out"></feComposite></filter><path d="M759.99 22.02C769.13 22.02 776.54 29.43 776.54 38.57C776.54 120.44 776.54 353.25 776.54 436.06C776.54 442.62 771.22 447.94 764.65 447.94C616.66 447.94 183.17 447.94 34.83 447.94C29.23 447.94 24.68 443.4 24.68 437.8C24.68 354.64 24.68 116.71 24.68 33.9C24.68 27.34 30.01 22.02 36.57 22.02C184.56 22.02 612.93 22.02 759.99 22.02Z" id="baUyegoVt" fill="white" fill-opacity="1" filter="url(#shadow6093029)"></path></g><use xlink:href="#cAOYAqXcD" opacity="1" fill="url(#gradientdjEi5DZUi)"></use><g><use xlink:href="#cAOYAqXcD" opacity="1" fill-opacity="0" stroke="#272516" stroke-width="1" stroke-opacity="0.24"></use></g></g></g></g></svg>