<?xml version="1.0" encoding="UTF-8" standalone="no"?>
<!DOCTYPE svg PUBLIC "-//W3C//DTD SVG 1.1//EN" "http://www.w3.org/Graphics/SVG/1.1/DTD/svg11.dtd">
<svg version="1.1" xmlns="http://www.w3.org/2000/svg" xmlns:xlink="http://www.w3.org/1999/xlink" preserveAspectRatio="xMidYMid meet" viewBox="0 0 1323 526" width="1323" height="526"><defs><path d="M1299.1 7.06C1308.7 7.06 1316.49 14.84 1316.49 24.44C1316.49 123.19 1316.49 398.69 1316.49 496.6C1316.49 508.52 1306.82 518.19 1294.9 518.19C1037.38 518.19 293.09 518.19 37.23 518.19C20.68 518.19 7.26 504.77 7.26 488.21C7.26 391.98 7.26 129.91 7.26 32.84C7.26 18.6 18.8 7.06 33.04 7.06C289.73 7.06 1040.73 7.06 1299.1 7.06Z" id="b4Dm8IhCa"></path><radialGradient id="gradientc5HoOf335I" gradientUnits="userSpaceOnUse" cx="1094.33" cy="58.94" dx="187.55" dy="518.19" r="1016.45"><stop style="stop-color: #b5e9ea;stop-opacity: 1" offset="0%"></stop><stop style="stop-color: #70b7b6;stop-opacity: 1" offset="100%"></stop></radialGradient><mask id="maskc9z0HeyER" x="-4.74" y="-4.94" width="1333.23" height="535.13" maskUnits="userSpaceOnUse"><rect x="-4.74" y="-4.94" width="1333.23" height="535.13" fill="white"></rect><use xlink:href="#b4Dm8IhCa" opacity="1" fill="black"></use></mask></defs><g><g><g><g><filter id="shadow9144559" x="-45.74" y="-45.94" width="1420.23" height="619.13" filterUnits="userSpaceOnUse" primitiveUnits="userSpaceOnUse"><feFlood></feFlood><feComposite in2="SourceAlpha" operator="in"></feComposite><feGaussianBlur stdDeviation="4.36"></feGaussianBlur><feOffset dx="5" dy="2" result="afterOffset"></feOffset><feFlood flood-color="#000000" flood-opacity="0.14"></feFlood><feComposite in2="afterOffset" operator="in"></feComposite><feMorphology operator="dilate" radius="5"></feMorphology><feComposite in2="SourceAlpha" operator="out"></feComposite></filter><path d="M1299.1 7.06C1308.7 7.06 1316.49 14.84 1316.49 24.44C1316.49 123.19 1316.49 398.69 1316.49 496.6C1316.49 508.52 1306.82 518.19 1294.9 518.19C1037.38 518.19 293.09 518.19 37.23 518.19C20.68 518.19 7.26 504.77 7.26 488.21C7.26 391.98 7.26 129.91 7.26 32.84C7.26 18.6 18.8 7.06 33.04 7.06C289.73 7.06 1040.73 7.06 1299.1 7.06Z" id="ivEqdt9Al" fill="white" fill-opacity="1" filter="url(#shadow9144559)"></path></g><use xlink:href="#b4Dm8IhCa" opacity="1" fill="url(#gradientc5HoOf335I)"></use><g mask="url(#maskc9z0HeyER)"><use xlink:href="#b4Dm8IhCa" opacity="1" fill-opacity="0" stroke="#000000" stroke-width="12" stroke-opacity="0.79"></use></g><g><filter id="shadow3023291" x="-70.74" y="-70.94" width="1465.23" height="667.13" filterUnits="userSpaceOnUse" primitiveUnits="userSpaceOnUse"><feFlood></feFlood><feComposite in2="SourceAlpha" operator="out"></feComposite><feGaussianBlur stdDeviation="5.66"></feGaussianBlur><feOffset dx="0" dy="0" result="afterOffset"></feOffset><feFlood flood-color="#6f6f6f" flood-opacity="0.8"></feFlood><feComposite in2="afterOffset" operator="in"></feComposite><feMorphology operator="dilate" radius="9"></feMorphology><feComposite in2="SourceAlpha" operator="in"></feComposite></filter><path d="M1299.1 7.06C1308.7 7.06 1316.49 14.84 1316.49 24.44C1316.49 123.19 1316.49 398.69 1316.49 496.6C1316.49 508.52 1306.82 518.19 1294.9 518.19C1037.38 518.19 293.09 518.19 37.23 518.19C20.68 518.19 7.26 504.77 7.26 488.21C7.26 391.98 7.26 129.91 7.26 32.84C7.26 18.6 18.8 7.06 33.04 7.06C289.73 7.06 1040.73 7.06 1299.1 7.06Z" id="c1629Dtoec" fill="white" fill-opacity="1" filter="url(#shadow3023291)"></path></g></g></g></g></svg>