<?xml version="1.0" encoding="UTF-8" standalone="no"?>
<!DOCTYPE svg PUBLIC "-//W3C//DTD SVG 1.1//EN" "http://www.w3.org/Graphics/SVG/1.1/DTD/svg11.dtd">
<svg version="1.1" xmlns="http://www.w3.org/2000/svg" xmlns:xlink="http://www.w3.org/1999/xlink" preserveAspectRatio="xMidYMid meet" viewBox="0 0 278 163" width="278" height="163"><defs><path d="M264.57 9.57C266.46 9.57 268 11.11 268 13C268 40.93 268 120.65 268 148.41C268 150.76 266.09 152.67 263.74 152.67C213 152.67 66.33 152.67 15.91 152.67C12.65 152.67 10 150.02 10 146.76C10 119.32 10 42.25 10 14.65C10 11.85 12.28 9.57 15.08 9.57C65.67 9.57 213.66 9.57 264.57 9.57Z" id="i13S1LKpp6"></path><radialGradient id="gradientcbABI0rc7" gradientUnits="userSpaceOnUse" cx="224.22" cy="24.1" dx="45.53" dy="152.67" r="220.14"><stop style="stop-color: #acd4e1;stop-opacity: 1" offset="0%"></stop><stop style="stop-color: #70afb7;stop-opacity: 1" offset="100%"></stop></radialGradient><mask id="maskabfUChQNl" x="-2" y="-2.43" width="281.99" height="167.1" maskUnits="userSpaceOnUse"><rect x="-2" y="-2.43" width="281.99" height="167.1" fill="white"></rect><use xlink:href="#i13S1LKpp6" opacity="1" fill="black"></use></mask><path d="" id="aRMthE5"></path><path d="" id="g2pZyzDFBf"></path></defs><g><g><g><g><filter id="shadow12114652" x="-43" y="-43.43" width="368.99" height="251.1" filterUnits="userSpaceOnUse" primitiveUnits="userSpaceOnUse"><feFlood></feFlood><feComposite in2="SourceAlpha" operator="in"></feComposite><feGaussianBlur stdDeviation="4.36"></feGaussianBlur><feOffset dx="5" dy="2" result="afterOffset"></feOffset><feFlood flood-color="#000000" flood-opacity="0.14"></feFlood><feComposite in2="afterOffset" operator="in"></feComposite><feMorphology operator="dilate" radius="5"></feMorphology><feComposite in2="SourceAlpha" operator="out"></feComposite></filter><path d="M264.57 9.57C266.46 9.57 268 11.11 268 13C268 40.93 268 120.65 268 148.41C268 150.76 266.09 152.67 263.74 152.67C213 152.67 66.33 152.67 15.91 152.67C12.65 152.67 10 150.02 10 146.76C10 119.32 10 42.25 10 14.65C10 11.85 12.28 9.57 15.08 9.57C65.67 9.57 213.66 9.57 264.57 9.57Z" id="altRAFYjB" fill="white" fill-opacity="1" filter="url(#shadow12114652)"></path></g><use xlink:href="#i13S1LKpp6" opacity="1" fill="url(#gradientcbABI0rc7)"></use><g mask="url(#maskabfUChQNl)"><use xlink:href="#i13S1LKpp6" opacity="1" fill-opacity="0" stroke="#000000" stroke-width="12" stroke-opacity="0.79"></use></g><g><filter id="shadow5574254" x="-68" y="-68.43" width="413.99" height="299.1" filterUnits="userSpaceOnUse" primitiveUnits="userSpaceOnUse"><feFlood></feFlood><feComposite in2="SourceAlpha" operator="out"></feComposite><feGaussianBlur stdDeviation="5.66"></feGaussianBlur><feOffset dx="0" dy="0" result="afterOffset"></feOffset><feFlood flood-color="#6f6f6f" flood-opacity="0.8"></feFlood><feComposite in2="afterOffset" operator="in"></feComposite><feMorphology operator="dilate" radius="9"></feMorphology><feComposite in2="SourceAlpha" operator="in"></feComposite></filter><path d="M264.57 9.57C266.46 9.57 268 11.11 268 13C268 40.93 268 120.65 268 148.41C268 150.76 266.09 152.67 263.74 152.67C213 152.67 66.33 152.67 15.91 152.67C12.65 152.67 10 150.02 10 146.76C10 119.32 10 42.25 10 14.65C10 11.85 12.28 9.57 15.08 9.57C65.67 9.57 213.66 9.57 264.57 9.57Z" id="m2EzJNnX1i" fill="white" fill-opacity="1" filter="url(#shadow5574254)"></path></g></g><g><g><use xlink:href="#aRMthE5" opacity="1" fill-opacity="0" stroke="#000000" stroke-width="4" stroke-opacity="1"></use></g></g><g><g><use xlink:href="#g2pZyzDFBf" opacity="1" fill-opacity="0" stroke="#000000" stroke-width="4" stroke-opacity="1"></use></g></g></g></g></svg>