<?xml version="1.0" encoding="UTF-8" standalone="no"?>
<!DOCTYPE svg PUBLIC "-//W3C//DTD SVG 1.1//EN" "http://www.w3.org/Graphics/SVG/1.1/DTD/svg11.dtd">
<svg version="1.1" xmlns="http://www.w3.org/2000/svg" xmlns:xlink="http://www.w3.org/1999/xlink" preserveAspectRatio="xMidYMid meet" viewBox="0 0 800 468" width="800" height="468"><defs><path d="M774.87 15.43C780.51 15.43 785.09 20.01 785.09 25.65C785.09 111.43 785.09 356.56 785.09 441.85C785.09 448.85 779.41 454.53 772.4 454.53C621.05 454.53 183.61 454.53 33.24 454.53C23.51 454.53 15.62 446.64 15.62 436.91C15.62 352.62 15.62 115.37 15.62 30.58C15.62 22.21 22.41 15.43 30.77 15.43C181.64 15.43 623.02 15.43 774.87 15.43Z" id="a4GEPOJCPu"></path><radialGradient id="gradientbX9nL97kF" gradientUnits="userSpaceOnUse" cx="654.52" cy="60" dx="121.58" dy="454.53" r="663.08"><stop style="stop-color: #b5e9ea;stop-opacity: 1" offset="0%"></stop><stop style="stop-color: #619897;stop-opacity: 1" offset="100%"></stop></radialGradient><mask id="maskh4AEGjseL" x="-6.38" y="-6.57" width="813.46" height="483.1" maskUnits="userSpaceOnUse"><rect x="-6.38" y="-6.57" width="813.46" height="483.1" fill="white"></rect><use xlink:href="#a4GEPOJCPu" opacity="1" fill="black"></use></mask><path d="" id="dp9RN6qmY"></path></defs><g><g><g><g><filter id="shadow15053751" x="-37.38" y="-37.57" width="880.46" height="547.1" filterUnits="userSpaceOnUse" primitiveUnits="userSpaceOnUse"><feFlood></feFlood><feComposite in2="SourceAlpha" operator="in"></feComposite><feGaussianBlur stdDeviation="4.36"></feGaussianBlur><feOffset dx="5" dy="2" result="afterOffset"></feOffset><feFlood flood-color="#000000" flood-opacity="0.14"></feFlood><feComposite in2="afterOffset" operator="in"></feComposite><feMorphology operator="dilate" radius="5"></feMorphology><feComposite in2="SourceAlpha" operator="out"></feComposite></filter><path d="M774.87 15.43C780.51 15.43 785.09 20.01 785.09 25.65C785.09 111.43 785.09 356.56 785.09 441.85C785.09 448.85 779.41 454.53 772.4 454.53C621.05 454.53 183.61 454.53 33.24 454.53C23.51 454.53 15.62 446.64 15.62 436.91C15.62 352.62 15.62 115.37 15.62 30.58C15.62 22.21 22.41 15.43 30.77 15.43C181.64 15.43 623.02 15.43 774.87 15.43Z" id="bKtDV9KL" fill="white" fill-opacity="1" filter="url(#shadow15053751)"></path></g><use xlink:href="#a4GEPOJCPu" opacity="1" fill="url(#gradientbX9nL97kF)"></use><g mask="url(#maskh4AEGjseL)"><use xlink:href="#a4GEPOJCPu" opacity="1" fill-opacity="0" stroke="#000000" stroke-width="22" stroke-opacity="0.96"></use></g><g><filter id="shadow23820" x="-108.38" y="-108.57" width="1017.46" height="687.1" filterUnits="userSpaceOnUse" primitiveUnits="userSpaceOnUse"><feFlood></feFlood><feComposite in2="SourceAlpha" operator="out"></feComposite><feGaussianBlur stdDeviation="7.07"></feGaussianBlur><feOffset dx="0" dy="0" result="afterOffset"></feOffset><feFlood flood-color="#000000" flood-opacity="0.58"></feFlood><feComposite in2="afterOffset" operator="in"></feComposite><feMorphology operator="dilate" radius="19"></feMorphology><feComposite in2="SourceAlpha" operator="in"></feComposite></filter><path d="M774.87 15.43C780.51 15.43 785.09 20.01 785.09 25.65C785.09 111.43 785.09 356.56 785.09 441.85C785.09 448.85 779.41 454.53 772.4 454.53C621.05 454.53 183.61 454.53 33.24 454.53C23.51 454.53 15.62 446.64 15.62 436.91C15.62 352.62 15.62 115.37 15.62 30.58C15.62 22.21 22.41 15.43 30.77 15.43C181.64 15.43 623.02 15.43 774.87 15.43Z" id="b8tGFHdy6" fill="white" fill-opacity="1" filter="url(#shadow23820)"></path></g></g><g><g><use xlink:href="#dp9RN6qmY" opacity="1" fill-opacity="0" stroke="#000000" stroke-width="6" stroke-opacity="1"></use></g></g></g></g></svg>